<svg width="50" height="50" viewBox="0 0 50 50" fill="none" xmlns="http://www.w3.org/2000/svg">
<rect width="50" height="50" rx="25" fill="url(#paint0_linear_538_1701)"/>
<g filter="url(#filter0_d_538_1701)">
<path d="M37.161 33.6672C37.1153 33.123 37.0356 32.5822 36.9224 32.048C36.0616 27.3093 33.752 23.3944 30.1636 20.2243C30.0152 20.1026 29.8301 20.0346 29.6381 20.0313C26.8313 20.0313 24.0243 20.0313 21.2179 20.0142C20.9129 20.0047 20.6171 20.1185 20.3969 20.3295C16.4623 23.8551 14.1469 28.2384 13.5473 33.4859C13.3285 35.3153 13.9706 36.8608 15.607 37.8638C16.4734 38.3822 17.4559 38.6753 18.465 38.7159C20.7603 38.8352 23.0559 38.9034 25.1923 39.0001C27.0559 38.9432 28.7577 38.9036 30.4566 38.8324C31.5673 38.787 32.681 38.77 33.7662 38.4432C36.0558 37.75 37.2945 36.0512 37.1609 33.6676L37.161 33.6672ZM26.1637 32.8149V34.1444L24.5047 34.1446V32.8121C23.2775 32.582 22.5161 31.8292 22.465 30.7325H23.9138C23.9847 31.3007 24.5643 31.6786 25.4051 31.6786C26.1778 31.6786 26.7261 31.3036 26.7261 30.7666C26.7261 30.312 26.371 30.0506 25.4961 29.8631L24.5699 29.6642C23.2745 29.38 22.6352 28.7182 22.6352 27.63C22.6354 26.5423 23.3456 25.7639 24.5047 25.4967V24.1587H26.1637V25.4967C27.3 25.7468 28.0388 26.5137 28.0756 27.548H26.6752C26.6043 26.9798 26.0815 26.6105 25.3628 26.6105C24.644 26.6105 24.1243 26.9571 24.1243 27.4996C24.1243 27.9372 24.4623 28.19 25.2976 28.369L26.1499 28.5509C27.5704 28.8521 28.1982 29.4686 28.1982 30.5736C28.2035 31.7667 27.4394 32.5649 26.1638 32.8092L26.1637 32.8149Z" fill="white" fill-opacity="0.7"/>
<path d="M20.6323 17.1991C20.7785 17.2946 20.9492 17.3459 21.1237 17.3467H25.3312H29.5387H29.5385C29.8011 17.3641 30.0569 17.2593 30.2317 17.0625C30.7718 16.5087 31.2812 15.9253 31.7573 15.3155C32.1083 14.8266 32.3849 14.2886 32.5783 13.7189C32.8625 12.8893 32.3851 12.2275 31.5158 12.0769C30.731 11.9798 29.9346 12.1016 29.2147 12.429C28.1863 12.8267 27.1778 13.2813 26.1663 13.7103C25.6658 13.9434 25.0877 13.9434 24.587 13.7103C23.4507 13.2132 22.2774 12.75 21.1125 12.2899C20.6197 12.0717 20.0823 11.9744 19.5443 12.0057C18.408 12.1165 17.7915 12.8581 18.1551 13.9545V13.9547C18.6073 15.2761 19.4769 16.4145 20.6324 17.199L20.6323 17.1991Z" fill="white" fill-opacity="0.7"/>
<path d="M22.4374 17.9717H21.1533C20.9657 17.9711 20.7877 18.0554 20.669 18.201C20.5505 18.3467 20.504 18.5379 20.5426 18.7218C20.6088 19.0613 20.9268 19.2912 21.2699 19.2473H25.3011H29.4204C29.6069 19.2658 29.792 19.2019 29.9275 19.0725C30.0629 18.9431 30.135 18.761 30.1249 18.574C30.1249 18.1905 29.8407 17.9688 29.3635 17.9688L22.4374 17.9717Z" fill="white" fill-opacity="0.7"/>
<mask id="mask0_538_1701" style="mask-type:alpha" maskUnits="userSpaceOnUse" x="13" y="12" width="25" height="27">
<path d="M37.161 33.6671C37.1153 33.123 37.0356 32.5822 36.9224 32.0479C36.0616 27.3092 33.752 23.3944 30.1636 20.2242C30.0152 20.1026 29.8301 20.0346 29.6381 20.0312C28.178 20.0312 26.7177 20.0312 25.2576 20.0288C23.9109 20.0266 22.5644 20.0223 21.2179 20.0142C20.9129 20.0047 20.6171 20.1184 20.3969 20.3294C16.4623 23.855 14.1469 28.2383 13.5473 33.4858C13.3285 35.3153 13.9706 36.8608 15.607 37.8637C16.4734 38.3821 17.4559 38.6752 18.465 38.7158C20.7603 38.8351 23.0559 38.9033 25.1923 39C25.2635 38.9978 25.3344 38.9957 25.4051 38.9936C27.1858 38.9401 28.8226 38.9008 30.4566 38.8324C31.5673 38.787 32.681 38.7699 33.7662 38.4432C36.0558 37.75 37.2945 36.0511 37.1609 33.6676L37.161 33.6671ZM26.1637 32.8148V34.1443L24.5047 34.1445V32.812C23.2775 32.582 22.5161 31.8291 22.465 30.7325H23.9138C23.9847 31.3006 24.5643 31.6785 25.4051 31.6785C26.1778 31.6785 26.7261 31.3036 26.7261 30.7665C26.7261 30.3119 26.371 30.0506 25.4961 29.8631L24.5699 29.6641C23.2745 29.3799 22.6352 28.7181 22.6352 27.6299C22.6354 26.5422 23.3456 25.7638 24.5047 25.4967V24.1587H26.1637V25.4967C27.3 25.7468 28.0388 26.5137 28.0756 27.5479H26.6752C26.6043 26.9798 26.0815 26.6104 25.3628 26.6104C24.644 26.6104 24.1243 26.957 24.1243 27.4996C24.1243 27.9371 24.4623 28.1899 25.2976 28.3689L26.1499 28.5508C27.5704 28.852 28.1982 29.4685 28.1982 30.5735C28.2035 31.7667 27.4394 32.5649 26.1638 32.8092L26.1637 32.8148Z" fill="black"/>
<path d="M20.6326 17.1991C20.7788 17.2946 20.9495 17.3459 21.124 17.3467H25.3315H29.539H29.5388C29.8013 17.3641 30.0572 17.2593 30.232 17.0625C30.7721 16.5087 31.2815 15.9253 31.7576 15.3155C32.1086 14.8266 32.3852 14.2886 32.5786 13.7189C32.8628 12.8893 32.3854 12.2275 31.5161 12.0769C30.7313 11.9798 29.9349 12.1016 29.215 12.429C28.1866 12.8267 27.1781 13.2813 26.1666 13.7103C25.9119 13.8289 25.6372 13.8872 25.3628 13.8851C25.0979 13.8831 24.8332 13.8248 24.5872 13.7103C23.451 13.2132 22.2776 12.75 21.1128 12.2899C20.62 12.0717 20.0825 11.9744 19.5446 12.0057C18.4083 12.1165 17.7918 12.8581 18.1554 13.9545V13.9547C18.6076 15.2761 19.4772 16.4145 20.6327 17.199L20.6326 17.1991Z" fill="black"/>
<path d="M21.1525 17.9717C20.9648 17.9711 20.7869 18.0553 20.6682 18.201C20.5497 18.3466 20.5031 18.5378 20.5417 18.7218C20.6079 19.0612 20.926 19.2911 21.269 19.2473H25.2576H29.4195C29.606 19.2657 29.7911 19.2019 29.9266 19.0725C30.062 18.9431 30.1341 18.761 30.124 18.5739C30.124 18.1905 29.8398 17.9687 29.3627 17.9687L25.2576 17.9702L21.1525 17.9717Z" fill="black"/>
</mask>
<g mask="url(#mask0_538_1701)">
<path d="M36.9215 32.0484C37.0347 32.5827 37.1143 33.1235 37.1601 33.6676L37.16 33.6681C37.2936 36.0516 36.0548 37.7505 33.7652 38.4437C32.6801 38.7704 31.5664 38.7875 30.4557 38.8329C28.8217 38.9013 27.1849 38.9406 25.4042 38.9941L25.1914 39.0005L25.2566 20.0293C26.7168 20.0317 28.177 20.0317 29.6372 20.0317C29.8292 20.0351 30.0143 20.1031 30.1627 20.2247C33.7511 23.3949 36.0607 27.3097 36.9215 32.0484Z" fill="white" fill-opacity="0.5"/>
<path d="M30.231 17.063C30.0563 17.2598 29.8004 17.3646 29.5379 17.3472H25.3306L25.3619 13.8856C25.6363 13.8877 25.911 13.8294 26.1657 13.7108C27.1772 13.2818 28.1856 12.8272 29.2141 12.4295C29.934 12.1021 30.7304 11.9803 31.5152 12.0774C32.3845 12.228 32.8619 12.8898 32.5777 13.7194C32.3843 14.2891 32.1076 14.8271 31.7567 15.316C31.2805 15.9258 30.7712 16.5092 30.231 17.063Z" fill="white" fill-opacity="0.5"/>
<path d="M29.9257 19.073C29.7902 19.2024 29.6051 19.2662 29.4186 19.2478H25.2566V17.9707L29.3617 17.9692C29.8389 17.9692 30.1231 18.191 30.1231 18.5744C30.1332 18.7615 30.0611 18.9436 29.9257 19.073Z" fill="white" fill-opacity="0.5"/>
</g>
</g>
<defs>
<filter id="filter0_d_538_1701" x="9.50586" y="12" width="31.6648" height="35" filterUnits="userSpaceOnUse" color-interpolation-filters="sRGB">
<feFlood flood-opacity="0" result="BackgroundImageFix"/>
<feColorMatrix in="SourceAlpha" type="matrix" values="0 0 0 0 0 0 0 0 0 0 0 0 0 0 0 0 0 0 127 0" result="hardAlpha"/>
<feOffset dy="4"/>
<feGaussianBlur stdDeviation="2"/>
<feComposite in2="hardAlpha" operator="out"/>
<feColorMatrix type="matrix" values="0 0 0 0 0 0 0 0 0 0 0 0 0 0 0 0 0 0 0.1 0"/>
<feBlend mode="normal" in2="BackgroundImageFix" result="effect1_dropShadow_538_1701"/>
<feBlend mode="normal" in="SourceGraphic" in2="effect1_dropShadow_538_1701" result="shape"/>
</filter>
<linearGradient id="paint0_linear_538_1701" x1="4.5" y1="39.5" x2="21.7116" y2="-1.21148" gradientUnits="userSpaceOnUse">
<stop offset="0.0195771" stop-color="#7ED957"/>
<stop offset="1" stop-color="#31B18C"/>
</linearGradient>
</defs>
</svg>
