<svg width="55" height="56" viewBox="0 0 55 56" fill="none" xmlns="http://www.w3.org/2000/svg">
<rect y="0.5" width="55" height="55" rx="12" fill="#F4F5F9"/>
<g clip-path="url(#clip0_143_2334)">
<path d="M24.1111 33.5H39.6667C39.6667 33.5 42 33.5 42 30.3889C42 28.8333 42 25.7222 41.2222 24.9444C40.4444 24.1667 35 19.5 32.6667 19.5H28C25.6667 19.5 20.2222 24.9444 20.2222 24.9444L17.1111 25.7222C17.1111 25.7222 14.7778 26.5 14.7778 28.0556V30.3889C14.7778 30.3889 14 30.6518 14 31.911C14 33.5 15.5556 33.5 15.5556 33.5H24.1111Z" fill="#DD2E44"/>
<path d="M29.5556 21.0557H28.0001C26.4445 21.0557 21.7778 25.7223 21.7778 25.7223C21.7778 25.7223 25.6644 25.5178 29.5556 25.3187V21.0557ZM37.3334 23.389C36.5556 22.6112 33.4445 21.0557 31.8889 21.0557H31.1112V25.2393C34.2308 25.0807 37.0083 24.9446 37.3334 24.9446C38.1112 24.9446 38.1112 24.1668 37.3334 23.389Z" fill="#BBDDF5"/>
<path d="M21.7779 35.8335C23.4961 35.8335 24.889 34.4406 24.889 32.7224C24.889 31.0042 23.4961 29.6113 21.7779 29.6113C20.0596 29.6113 18.6667 31.0042 18.6667 32.7224C18.6667 34.4406 20.0596 35.8335 21.7779 35.8335Z" fill="#292F33"/>
<path d="M21.7777 34.2771C22.6368 34.2771 23.3333 33.5807 23.3333 32.7215C23.3333 31.8624 22.6368 31.166 21.7777 31.166C20.9186 31.166 20.2222 31.8624 20.2222 32.7215C20.2222 33.5807 20.9186 34.2771 21.7777 34.2771Z" fill="#CCD6DD"/>
<path d="M34.9998 35.8335C36.718 35.8335 38.1109 34.4406 38.1109 32.7224C38.1109 31.0042 36.718 29.6113 34.9998 29.6113C33.2816 29.6113 31.8887 31.0042 31.8887 32.7224C31.8887 34.4406 33.2816 35.8335 34.9998 35.8335Z" fill="#292F33"/>
<path d="M35.0001 34.2771C35.8592 34.2771 36.5557 33.5807 36.5557 32.7215C36.5557 31.8624 35.8592 31.166 35.0001 31.166C34.141 31.166 33.4446 31.8624 33.4446 32.7215C33.4446 33.5807 34.141 34.2771 35.0001 34.2771Z" fill="#CCD6DD"/>
</g>
<defs>
<clipPath id="clip0_143_2334">
<rect width="28" height="17" fill="white" transform="translate(14 19.5)"/>
</clipPath>
</defs>
</svg>
