<svg width="70" height="70" viewBox="0 0 70 70" fill="none" xmlns="http://www.w3.org/2000/svg">
<rect width="70" height="70" rx="12" fill="#F4F5F9"/>
<g clip-path="url(#clip0_211_1568)">
<path d="M19.5156 32.3838H49.2126V50.202H19.5156V32.3838Z" fill="#66757F"/>
<path d="M18.5257 50.2017H50.2024C51.2953 50.2017 52.1823 51.0885 52.1823 52.1814H16.5459C16.5459 51.0885 17.4328 50.2017 18.5257 50.2017Z" fill="#CCD6DD"/>
<path d="M34.3643 39.313C32.724 39.313 31.3945 40.6424 31.3945 42.2826V48.2221H37.334V42.2826C37.334 40.6424 36.0046 39.313 34.3643 39.313Z" fill="#292F33"/>
<path d="M19.5156 37.3335H23.4752V48.2224H19.5156V37.3335ZM25.455 37.3335H29.4146V48.2224H25.455V37.3335ZM45.253 37.3335H49.2126V48.2224H45.253V37.3335ZM39.3136 37.3335H43.2732V48.2224H39.3136V37.3335Z" fill="#CCD6DD"/>
<path d="M18.5254 48.2217H50.2021V50.2014H18.5254V48.2217Z" fill="#AAB8C2"/>
<path d="M52.1823 27.4343L34.3641 16.5454L16.5459 27.4343H52.1823Z" fill="#66757F"/>
<path d="M34.3638 18.9214L18.5254 28.4244V32.384H50.2021V28.4244L34.3638 18.9214Z" fill="#CCD6DD"/>
<path d="M19.5156 35.3535H23.4752V37.3334H19.5156V35.3535ZM25.455 35.3535H29.4146V37.3334H25.455V35.3535ZM39.3136 35.3535H43.2732V37.3334H39.3136V35.3535ZM45.253 35.3535H49.2126V37.3334H45.253V35.3535Z" fill="#8899A6"/>
<path d="M17.5361 28.4243H51.1927V33.3738H17.5361V28.4243Z" fill="#CCD6DD"/>
<path d="M52.1823 28.4241C52.1823 28.9706 51.7397 29.414 51.1923 29.414H17.5358C16.9894 29.414 16.5459 28.9706 16.5459 28.4241V27.4342C16.5459 26.8878 16.9894 26.4443 17.5358 26.4443H51.1923C51.7397 26.4443 52.1823 26.8878 52.1823 27.4342V28.4241ZM52.1823 34.3635C52.1823 34.9099 51.7397 35.3535 51.1923 35.3535H17.5358C16.9894 35.3535 16.5459 34.9099 16.5459 34.3635V33.3736C16.5459 32.8272 16.9894 32.3837 17.5358 32.3837H51.1923C51.7397 32.3837 52.1823 32.8272 52.1823 33.3736V34.3635Z" fill="#AAB8C2"/>
<path d="M29.415 48.2217H39.3141V50.2014H29.415V48.2217Z" fill="#E1E8ED"/>
<path d="M27.4346 50.2017H41.2931V52.1814H27.4346V50.2017Z" fill="#F5F8FA"/>
</g>
<defs>
<clipPath id="clip0_211_1568">
<rect width="35.6364" height="35.6364" fill="white" transform="translate(16.5459 16.5454)"/>
</clipPath>
</defs>
</svg>
