<svg width="55" height="56" viewBox="0 0 55 56" fill="none" xmlns="http://www.w3.org/2000/svg">
<rect y="0.5" width="55" height="55" rx="12" fill="#F4F5F9"/>
<g clip-path="url(#clip0_146_1083)">
<path d="M15.3333 25.9443H38.6666V39.9443H15.3333V25.9443Z" fill="#66757F"/>
<path d="M14.5556 39.9443H39.4444C40.3031 39.9443 41 40.6411 41 41.4998H13C13 40.6411 13.6969 39.9443 14.5556 39.9443Z" fill="#CCD6DD"/>
<path d="M27.0001 31.3887C25.7113 31.3887 24.6667 32.4332 24.6667 33.722V38.3887H29.3334V33.722C29.3334 32.4332 28.2889 31.3887 27.0001 31.3887Z" fill="#292F33"/>
<path d="M15.3333 29.834H18.4444V38.3896H15.3333V29.834ZM19.9999 29.834H23.111V38.3896H19.9999V29.834ZM35.5555 29.834H38.6666V38.3896H35.5555V29.834ZM30.8888 29.834H33.9999V38.3896H30.8888V29.834Z" fill="#CCD6DD"/>
<path d="M14.5554 38.3887H39.4443V39.9442H14.5554V38.3887Z" fill="#AAB8C2"/>
<path d="M41 22.0556L27 13.5L13 22.0556H41Z" fill="#66757F"/>
<path d="M26.9999 15.3672L14.5554 22.8339V25.945H39.4443V22.8339L26.9999 15.3672Z" fill="#CCD6DD"/>
<path d="M15.3333 28.2773H18.4444V29.8329H15.3333V28.2773ZM19.9999 28.2773H23.111V29.8329H19.9999V28.2773ZM30.8888 28.2773H33.9999V29.8329H30.8888V28.2773ZM35.5555 28.2773H38.6666V29.8329H35.5555V28.2773Z" fill="#8899A6"/>
<path d="M13.7778 22.834H40.2223V26.7229H13.7778V22.834Z" fill="#CCD6DD"/>
<path d="M41 22.8329C41 23.2622 40.6523 23.6107 40.2222 23.6107H13.7778C13.3484 23.6107 13 23.2622 13 22.8329V22.0551C13 21.6258 13.3484 21.2773 13.7778 21.2773H40.2222C40.6523 21.2773 41 21.6258 41 22.0551V22.8329ZM41 27.4996C41 27.9289 40.6523 28.2774 40.2222 28.2774H13.7778C13.3484 28.2774 13 27.9289 13 27.4996V26.7218C13 26.2925 13.3484 25.944 13.7778 25.944H40.2222C40.6523 25.944 41 26.2925 41 26.7218V27.4996Z" fill="#AAB8C2"/>
<path d="M23.1113 38.3887H30.8891V39.9442H23.1113V38.3887Z" fill="#E1E8ED"/>
<path d="M21.5554 39.9443H32.4443V41.4998H21.5554V39.9443Z" fill="#F5F8FA"/>
</g>
<defs>
<clipPath id="clip0_146_1083">
<rect width="28" height="28" fill="white" transform="translate(13 13.5)"/>
</clipPath>
</defs>
</svg>
