<svg width="58" height="58" viewBox="0 0 58 58" fill="none" xmlns="http://www.w3.org/2000/svg">
<rect x="4" y="4" width="50" height="50" rx="25" fill="url(#paint0_linear_538_1737)"/>
<g filter="url(#filter0_d_538_1737)">
<path d="M13.2208 38.2212C10.7065 33.9187 10.1512 29.0079 11.2895 24.5326C12.4418 19.9362 15.3714 15.797 19.7791 13.2212C24.1869 10.6455 29.2309 10.1251 33.8014 11.3774C38.2593 12.5823 42.2648 15.4768 44.7792 19.7795C47.2933 24.0817 47.8487 28.9928 46.7105 33.4681C45.5582 38.0645 42.6286 42.2037 38.2208 44.7795C33.813 47.3552 28.769 47.8756 24.1986 46.6233C19.7409 45.4183 15.735 42.5236 13.2208 38.2212Z" fill="url(#paint1_linear_538_1737)"/>
</g>
<path d="M47.2744 28.9984C47.2744 33.9818 45.2761 38.5018 42.0355 41.7914C38.7215 45.1786 34.1037 47.2742 28.9985 47.2742C23.8933 47.2742 19.2758 45.1786 15.9616 41.7914C12.7206 38.502 10.7227 33.9819 10.7227 28.9984C10.7227 24.0155 12.7209 19.4951 15.9616 16.2054C19.2755 12.8183 23.8933 10.7227 28.9985 10.7227C34.1037 10.7227 38.7212 12.8183 42.0355 16.2054C45.2762 19.4949 47.2744 24.0153 47.2744 28.9984Z" stroke="white" stroke-width="1.5" stroke-miterlimit="10" stroke-linejoin="round"/>
<path opacity="0.7" d="M42.0368 16.2073C38.7228 19.5942 34.105 21.6898 28.9998 21.6898C23.8946 21.6898 19.2772 19.5942 15.9629 16.207" stroke="white" stroke-width="1.5" stroke-miterlimit="10" stroke-linejoin="round"/>
<path opacity="0.7" d="M15.9629 41.793C19.2768 38.4061 23.8946 36.3105 28.9998 36.3105C34.105 36.3105 38.7225 38.4062 42.0368 41.7933" stroke="white" stroke-width="1.5" stroke-miterlimit="10" stroke-linejoin="round"/>
<path opacity="0.7" d="M38.7466 28.9984C38.7466 39.0921 34.3827 47.2741 28.9993 47.2741C23.6159 47.2741 19.252 39.0921 19.252 28.9984C19.252 18.9046 23.6159 10.7227 28.9993 10.7227C34.3827 10.7227 38.7466 18.9046 38.7466 28.9984Z" stroke="white" stroke-width="1.5" stroke-miterlimit="10" stroke-linejoin="round"/>
<path opacity="0.7" d="M29 10.7246V47.276" stroke="white" stroke-width="1.5" stroke-miterlimit="10" stroke-linejoin="round"/>
<path opacity="0.7" d="M47.2741 29H10.7227" stroke="white" stroke-width="1.5" stroke-miterlimit="10" stroke-linejoin="round"/>
<defs>
<filter id="filter0_d_538_1737" x="0.725342" y="0.725586" width="56.5491" height="56.5488" filterUnits="userSpaceOnUse" color-interpolation-filters="sRGB">
<feFlood flood-opacity="0" result="BackgroundImageFix"/>
<feColorMatrix in="SourceAlpha" type="matrix" values="0 0 0 0 0 0 0 0 0 0 0 0 0 0 0 0 0 0 127 0" result="hardAlpha"/>
<feOffset/>
<feGaussianBlur stdDeviation="5"/>
<feComposite in2="hardAlpha" operator="out"/>
<feColorMatrix type="matrix" values="0 0 0 0 0 0 0 0 0 0 0 0 0 0 0 0 0 0 0.1 0"/>
<feBlend mode="normal" in2="BackgroundImageFix" result="effect1_dropShadow_538_1737"/>
<feBlend mode="normal" in="SourceGraphic" in2="effect1_dropShadow_538_1737" result="shape"/>
</filter>
<linearGradient id="paint0_linear_538_1737" x1="8.5" y1="43.5" x2="25.7143" y2="2.78827" gradientUnits="userSpaceOnUse">
<stop offset="0.0195771" stop-color="#A094F6"/>
<stop offset="1" stop-color="#9DCFFD"/>
</linearGradient>
<linearGradient id="paint1_linear_538_1737" x1="36.5908" y1="12.2873" x2="40.7492" y2="44.327" gradientUnits="userSpaceOnUse">
<stop offset="0.0195771" stop-color="#A094F6"/>
<stop offset="1" stop-color="#9DCFFD"/>
</linearGradient>
</defs>
</svg>
