<svg width="60" height="60" viewBox="0 0 60 60" fill="none" xmlns="http://www.w3.org/2000/svg">
<path d="M30.0002 0.833496C13.9002 0.833496 0.833496 13.9002 0.833496 30.0002C0.833496 46.1002 13.9002 59.1668 30.0002 59.1668C46.1002 59.1668 59.1668 46.1002 59.1668 30.0002C59.1668 13.9002 46.1002 0.833496 30.0002 0.833496ZM6.66683 30.0002C6.66683 17.1085 17.1085 6.66683 30.0002 6.66683C35.396 6.66683 40.3543 8.50433 44.2918 11.596L11.596 44.2918C8.50433 40.3543 6.66683 35.396 6.66683 30.0002ZM30.0002 53.3335C24.6043 53.3335 19.646 51.496 15.7085 48.4043L48.4043 15.7085C51.496 19.646 53.3335 24.6043 53.3335 30.0002C53.3335 42.8918 42.8918 53.3335 30.0002 53.3335Z" fill="#D24944"/>
</svg>
