<svg width="30" height="30" viewBox="0 0 30 30" fill="none" xmlns="http://www.w3.org/2000/svg">
<rect x="0.25" y="0.25" width="29.5" height="29.5" rx="14.75" fill="white" stroke="#1A202C" stroke-width="0.5"/>
<path d="M7.5 12.5007C7.5 11.5802 8.24619 10.834 9.16667 10.834H9.94136C10.4986 10.834 11.019 10.5555 11.3281 10.0918L12.0052 9.07615C12.3143 8.61249 12.8347 8.33398 13.392 8.33398H16.608C17.1653 8.33398 17.6857 8.61249 17.9948 9.07615L18.6719 10.0918C18.981 10.5555 19.5014 10.834 20.0586 10.834H20.8333C21.7538 10.834 22.5 11.5802 22.5 12.5007V20.0006C22.5 20.9211 21.7538 21.6673 20.8333 21.6673H9.16667C8.24619 21.6673 7.5 20.9211 7.5 20.0006V12.5007Z" stroke="#1A202C" stroke-width="2" stroke-linecap="round" stroke-linejoin="round"/>
<path d="M17.5 15.834C17.5 17.2147 16.3807 18.334 15 18.334C13.6193 18.334 12.5 17.2147 12.5 15.834C12.5 14.4533 13.6193 13.334 15 13.334C16.3807 13.334 17.5 14.4533 17.5 15.834Z" stroke="#1A202C" stroke-width="2" stroke-linecap="round" stroke-linejoin="round"/>
</svg>
