<svg width="55" height="56" viewBox="0 0 55 56" fill="none" xmlns="http://www.w3.org/2000/svg">
<rect y="0.5" width="55" height="55" rx="12" fill="#F4F5F9"/>
<g clip-path="url(#clip0_146_1100)">
<path d="M35.93 19.9716C35.93 19.858 35.8384 19.7656 35.724 19.7656H35.352C35.2384 19.7656 35.146 19.858 35.146 19.9716V28.959C35.146 29.0726 35.2376 29.165 35.352 29.165H35.724C35.8376 29.165 35.93 29.0734 35.93 28.959V19.9716Z" fill="#66757F"/>
<path d="M35.5384 29.9474C36.1872 29.9474 36.7132 29.4214 36.7132 28.7725C36.7132 28.1237 36.1872 27.5977 35.5384 27.5977C34.8895 27.5977 34.3635 28.1237 34.3635 28.7725C34.3635 29.4214 34.8895 29.9474 35.5384 29.9474Z" fill="#F19020"/>
<path d="M35.5383 31.5137C35.9709 31.5137 36.3216 31.163 36.3216 30.7305C36.3216 30.2979 35.9709 29.9473 35.5383 29.9473C35.1058 29.9473 34.7551 30.2979 34.7551 30.7305C34.7551 31.163 35.1058 31.5137 35.5383 31.5137Z" fill="#F19020"/>
<path d="M39.8462 19.7657H36.6123L21.5941 13.5313L21.5925 13.5305H21.5917C21.5792 13.5251 21.5667 13.5266 21.5549 13.5227C21.5181 13.5117 21.4813 13.5 21.4406 13.5H21.439C21.3873 13.5 21.3372 13.511 21.2902 13.5298C21.2549 13.5454 21.2244 13.5689 21.1946 13.594C21.1852 13.601 21.1743 13.605 21.1656 13.6136C21.1288 13.6496 21.0991 13.6935 21.0795 13.742V13.7428C21.0764 13.7498 21.0771 13.7585 21.0748 13.7655L16.735 19.8824C16.7326 19.8856 16.7326 19.8903 16.7303 19.8934C16.5071 20.0312 16.3496 20.267 16.3496 20.549V22.1154C16.3496 22.5477 16.7005 22.8986 17.1329 22.8986H18.3038L15.3949 39.9336H14V41.5H28.8482V39.9336H27.4854L24.5773 22.8986H39.8462C40.2793 22.8986 40.6294 22.5477 40.6294 22.1154V20.549C40.6294 20.1166 40.2793 19.7657 39.8462 19.7657ZM22.7963 22.8986L21.4406 23.9865L20.0856 22.8986H22.7963ZM21.4406 29.9867L24.3126 31.8696L21.4406 33.436L18.5685 31.8696L21.4406 29.9867ZM18.5904 30.5428L18.9617 28.3623L20.4232 29.3202L18.5904 30.5428ZM22.458 29.3202L23.9226 28.3608L24.2962 30.5451L22.458 29.3202ZM21.4406 28.6419L19.2256 27.1656L21.4406 25.3469L23.6555 27.1656L21.4406 28.6419ZM19.4332 25.5976L19.7167 23.9317L20.6025 24.6585L19.4332 25.5976ZM22.2786 24.6593L23.1652 23.9317L23.4503 25.5999L22.2786 24.6593ZM17.7775 19.7657L21.049 15.1542V18.1993H19.4825C19.0502 18.1993 18.6993 18.5502 18.6993 18.9825V19.7657H17.7775ZM18.1926 32.8752L20.3307 34.0414L17.754 35.4465L18.1926 32.8752ZM25.8994 39.9336H16.9895L17.5268 36.7819L21.4406 34.6469L25.3613 36.7858L25.8994 39.9336ZM24.6933 32.8729L25.1334 35.4504L22.5504 34.0414L24.6933 32.8729ZM24.1818 19.7657V18.9825C24.1818 18.5502 23.8309 18.1993 23.3986 18.1993H21.8322V14.4782L34.5696 19.7657H24.1818ZM25.7483 22.1154H24.8397V20.549H25.7483V22.1154ZM28.0979 22.1154H26.5315V20.549H28.0979V22.1154ZM30.4476 22.1154H28.8811V20.549H30.4476V22.1154ZM32.7972 22.1154H31.2308V20.549H32.7972V22.1154ZM35.1469 22.1154H33.5804V20.549H35.1469V22.1154ZM37.4965 22.1154H35.9301V20.549H37.4965V22.1154ZM39.8462 21.7238C39.8462 21.9399 39.6707 22.1154 39.4545 22.1154H38.2797V20.549H39.4545C39.6707 20.549 39.8462 20.7244 39.8462 20.9406V21.7238Z" fill="#BD2032"/>
<path d="M23.3987 18.9824H21.8323C21.4 18.9824 21.0491 19.3333 21.0491 19.7656V21.3321C21.0491 21.7644 21.4 22.1153 21.8323 22.1153H24.1819V18.9824H23.3987Z" fill="#4B545D"/>
<path d="M22.6155 18.9824H24.1819V22.1153H22.6155V18.9824Z" fill="#CDD7DF"/>
<path d="M41.0947 32.1016V31.3184H29.9824V32.1016H30.6435V34.0354H29.9824V34.8186H41.0947V34.0354H40.4337V32.1016H41.0947Z" fill="#66757F"/>
</g>
<defs>
<clipPath id="clip0_146_1100">
<rect width="28" height="28" fill="white" transform="translate(14 13.5)"/>
</clipPath>
</defs>
</svg>
