<svg width="18" height="18" viewBox="0 0 18 18" fill="none" xmlns="http://www.w3.org/2000/svg">
<path d="M9.00002 17.3327C4.39765 17.3327 0.666687 13.6017 0.666687 8.99935C0.666687 4.39698 4.39765 0.666016 9.00002 0.666016C13.6024 0.666016 17.3334 4.39698 17.3334 8.99935C17.3283 13.5996 13.6003 17.3276 9.00002 17.3327ZM9.00002 2.33268C5.31812 2.33268 2.33335 5.31745 2.33335 8.99935C2.33335 12.6812 5.31812 15.666 9.00002 15.666C12.6819 15.666 15.6667 12.6812 15.6667 8.99935C15.6626 5.31916 12.6802 2.33682 9.00002 2.33268ZM9.00002 13.9993C7.68337 14.0216 6.43885 13.3994 5.66669 12.3327C5.29175 11.8313 5.00953 11.2668 4.83335 10.666H13.1667C13.1667 10.666 13.1667 10.666 13.1667 10.6727C12.9878 11.2704 12.7058 11.8322 12.3334 12.3327C11.5611 13.3993 10.3166 14.0215 9.00002 13.9993ZM6.08335 8.99935C5.393 8.99935 4.83335 8.43971 4.83335 7.74935C4.83335 7.05899 5.393 6.49935 6.08335 6.49935C6.77371 6.49935 7.33335 7.05899 7.33335 7.74935C7.33335 8.43971 6.77371 8.99935 6.08335 8.99935ZM11.9109 8.98768C11.2237 8.98768 10.6667 8.43065 10.6667 7.74352C10.6667 7.05638 11.2237 6.49935 11.9109 6.49935C12.598 6.49935 13.155 7.05638 13.155 7.74352C13.1541 8.43027 12.5976 8.98676 11.9109 8.98768Z" fill="#1A202C"/>
</svg>
