<svg width="222" height="57" viewBox="0 0 222 57" fill="none" xmlns="http://www.w3.org/2000/svg">
<rect x="1" y="1" width="220" height="55" rx="27.5" fill="#F4F5F9"/>
<rect x="0.5" y="0.5" width="221" height="56" rx="28" stroke="#1A202C" stroke-opacity="0.3"/>
<path d="M49.0874 23.624V35H47.3914V23.624H49.0874ZM59.1907 30.936C59.1907 32.2267 58.8334 33.256 58.1187 34.024C57.4041 34.792 56.4281 35.176 55.1907 35.176C53.9534 35.176 52.9774 34.792 52.2627 34.024C51.5481 33.256 51.1907 32.2267 51.1907 30.936C51.1907 29.656 51.5534 28.6267 52.2787 27.848C53.0041 27.0693 53.9747 26.68 55.1907 26.68C56.4067 26.68 57.3774 27.0693 58.1027 27.848C58.8281 28.6267 59.1907 29.656 59.1907 30.936ZM53.4787 28.952C53.0841 29.432 52.8867 30.0933 52.8867 30.936C52.8867 31.7787 53.0894 32.44 53.4947 32.92C53.9107 33.4 54.4867 33.64 55.2227 33.64C55.9481 33.64 56.5081 33.4 56.9027 32.92C57.2974 32.44 57.4947 31.7787 57.4947 30.936C57.4947 30.0933 57.2867 29.432 56.8707 28.952C56.4654 28.4613 55.9001 28.216 55.1747 28.216C54.4494 28.216 53.8841 28.4613 53.4787 28.952ZM66.946 26.84H68.546V34.504C68.546 35.6773 68.2046 36.5947 67.522 37.256C66.85 37.9173 65.9006 38.248 64.674 38.248C63.586 38.248 62.6953 37.9867 62.002 37.464C61.3193 36.952 60.9193 36.2427 60.802 35.336H62.466C62.5513 35.8267 62.786 36.2053 63.17 36.472C63.554 36.7493 64.0553 36.888 64.674 36.888C65.41 36.888 65.97 36.7013 66.354 36.328C66.7486 35.9653 66.946 35.432 66.946 34.728V33.256C66.722 33.704 66.3753 34.0507 65.906 34.296C65.4366 34.5307 64.898 34.648 64.29 34.648C63.1913 34.648 62.322 34.2907 61.682 33.576C61.042 32.8613 60.722 31.8907 60.722 30.664C60.722 29.4587 61.042 28.4933 61.682 27.768C62.322 27.0427 63.1913 26.68 64.29 26.68C64.9086 26.68 65.4526 26.8027 65.922 27.048C66.3913 27.2827 66.7326 27.624 66.946 28.072V26.84ZM66.866 30.648C66.866 29.8693 66.6686 29.256 66.274 28.808C65.8793 28.3493 65.3406 28.12 64.658 28.12C63.9753 28.12 63.4313 28.3493 63.026 28.808C62.6206 29.2667 62.418 29.88 62.418 30.648C62.418 31.4267 62.6153 32.0507 63.01 32.52C63.4153 32.9787 63.9646 33.208 64.658 33.208C65.3406 33.208 65.8793 32.9787 66.274 32.52C66.6686 32.0613 66.866 31.4373 66.866 30.648ZM71.0137 25.416V23.464H72.8217V25.416H71.0137ZM71.0617 35V26.84H72.7577V35H71.0617ZM82.4001 29.72V35H80.7201V29.896C80.7201 29.3733 80.5761 28.9573 80.2881 28.648C80.0001 28.3387 79.6054 28.184 79.1041 28.184C78.4748 28.184 77.9734 28.4027 77.6001 28.84C77.2374 29.2773 77.0561 29.8747 77.0561 30.632V35H75.3601V26.84H77.0561V28.056C77.3334 27.576 77.6694 27.2293 78.0641 27.016C78.4588 26.792 78.9548 26.68 79.5521 26.68C80.4694 26.68 81.1734 26.9413 81.6641 27.464C82.1548 27.976 82.4001 28.728 82.4001 29.72ZM100.859 26.84L98.0586 35H96.3626L94.4106 29.096L92.4586 35H90.7626L87.9626 26.84H89.7546L91.6586 32.984L93.5946 26.84H95.3066L97.2586 32.984L99.1466 26.84H100.859ZM102.436 25.416V23.464H104.244V25.416H102.436ZM102.484 35V26.84H104.18V35H102.484ZM110.862 33.544V35H109.726C108.83 35 108.201 34.8133 107.838 34.44C107.475 34.056 107.294 33.3893 107.294 32.44V28.312H105.742V26.84H107.294V24.872L108.99 24.424V26.84H110.67V28.312H108.99V32.504C108.99 33.1973 109.342 33.544 110.046 33.544H110.862ZM119.838 29.72V35H118.158V29.896C118.158 29.3733 118.014 28.9573 117.726 28.648C117.438 28.3387 117.043 28.184 116.542 28.184C115.912 28.184 115.411 28.4027 115.038 28.84C114.675 29.2773 114.494 29.8747 114.494 30.632V35H112.798V23.624H114.494V28.12C114.771 27.608 115.102 27.24 115.486 27.016C115.88 26.792 116.382 26.68 116.99 26.68C117.907 26.68 118.611 26.9413 119.102 27.464C119.592 27.976 119.838 28.728 119.838 29.72ZM128.609 30.168V35H126.833V23.8H134.225V25.448H128.609V28.504H133.793V30.168H128.609ZM142.228 29.32V35H140.612V33.768C140.015 34.7067 139.124 35.176 137.94 35.176C137.119 35.176 136.468 34.9573 135.988 34.52C135.519 34.072 135.284 33.4747 135.284 32.728C135.284 31.9067 135.53 31.3307 136.02 31C136.532 30.648 137.135 30.4187 137.828 30.312L139.572 30.04C139.892 29.9973 140.143 29.9067 140.324 29.768C140.506 29.6187 140.596 29.384 140.596 29.064C140.596 28.3813 140.095 28.04 139.092 28.04C137.951 28.04 137.29 28.4987 137.108 29.416H135.508C135.604 28.5733 135.978 27.9067 136.628 27.416C137.279 26.9253 138.127 26.68 139.172 26.68C140.154 26.68 140.906 26.904 141.428 27.352C141.962 27.7893 142.228 28.4453 142.228 29.32ZM140.548 31.544V30.952C140.25 31.048 139.871 31.1333 139.412 31.208L138.484 31.352C138.079 31.416 137.722 31.5333 137.412 31.704C137.103 31.8853 136.948 32.2 136.948 32.648C136.948 33 137.066 33.272 137.3 33.464C137.546 33.656 137.887 33.752 138.324 33.752C138.975 33.752 139.508 33.5493 139.924 33.144C140.34 32.7387 140.548 32.2053 140.548 31.544ZM148.174 35.176C146.968 35.176 146.008 34.7973 145.294 34.04C144.59 33.272 144.238 32.2533 144.238 30.984C144.238 29.704 144.606 28.6693 145.342 27.88C146.078 27.08 147.043 26.68 148.238 26.68C149.262 26.68 150.099 26.968 150.75 27.544C151.4 28.12 151.736 28.8667 151.758 29.784H150.11C150.067 29.2933 149.88 28.9093 149.55 28.632C149.23 28.344 148.787 28.2 148.222 28.2C147.507 28.2 146.947 28.4453 146.542 28.936C146.136 29.416 145.934 30.0773 145.934 30.92C145.934 31.7627 146.131 32.4293 146.526 32.92C146.931 33.4 147.491 33.64 148.206 33.64C148.75 33.64 149.192 33.496 149.534 33.208C149.886 32.9093 150.088 32.5093 150.142 32.008H151.806C151.71 32.9893 151.336 33.7627 150.686 34.328C150.035 34.8933 149.198 35.176 148.174 35.176ZM160.883 30.696V31.4H154.931C154.931 32.136 155.144 32.7173 155.571 33.144C155.998 33.56 156.579 33.768 157.315 33.768C158.328 33.768 158.995 33.3787 159.315 32.6H160.803C160.6 33.3787 160.174 34.0027 159.523 34.472C158.883 34.9413 158.104 35.176 157.187 35.176C156.024 35.176 155.091 34.7973 154.387 34.04C153.694 33.272 153.347 32.2533 153.347 30.984C153.347 29.6933 153.704 28.6533 154.419 27.864C155.144 27.0747 156.088 26.68 157.251 26.68C158.35 26.68 159.23 27.048 159.891 27.784C160.552 28.5093 160.883 29.48 160.883 30.696ZM158.723 28.648C158.36 28.2747 157.859 28.088 157.219 28.088C156.579 28.088 156.051 28.2747 155.635 28.648C155.23 29.0213 155 29.528 154.947 30.168H159.267C159.267 29.528 159.086 29.0213 158.723 28.648ZM170.969 30.904C170.969 32.1947 170.638 33.2293 169.977 34.008C169.326 34.7867 168.457 35.176 167.369 35.176C166.718 35.176 166.158 35.0427 165.689 34.776C165.22 34.5093 164.868 34.1413 164.633 33.672V35H162.985V23.624H164.681V28.248C164.916 27.7467 165.273 27.3627 165.753 27.096C166.244 26.8187 166.809 26.68 167.449 26.68C168.516 26.68 169.369 27.0693 170.009 27.848C170.649 28.616 170.969 29.6347 170.969 30.904ZM168.633 32.984C169.06 32.472 169.273 31.8 169.273 30.968C169.273 30.136 169.06 29.4693 168.633 28.968C168.217 28.456 167.662 28.2 166.969 28.2C166.276 28.2 165.71 28.456 165.273 28.968C164.836 29.48 164.617 30.1467 164.617 30.968C164.617 31.7893 164.836 32.456 165.273 32.968C165.71 33.48 166.276 33.736 166.969 33.736C167.662 33.736 168.217 33.4853 168.633 32.984ZM180.503 30.936C180.503 32.2267 180.146 33.256 179.431 34.024C178.717 34.792 177.741 35.176 176.503 35.176C175.266 35.176 174.29 34.792 173.575 34.024C172.861 33.256 172.503 32.2267 172.503 30.936C172.503 29.656 172.866 28.6267 173.591 27.848C174.317 27.0693 175.287 26.68 176.503 26.68C177.719 26.68 178.69 27.0693 179.415 27.848C180.141 28.6267 180.503 29.656 180.503 30.936ZM174.791 28.952C174.397 29.432 174.199 30.0933 174.199 30.936C174.199 31.7787 174.402 32.44 174.807 32.92C175.223 33.4 175.799 33.64 176.535 33.64C177.261 33.64 177.821 33.4 178.215 32.92C178.61 32.44 178.807 31.7787 178.807 30.936C178.807 30.0933 178.599 29.432 178.183 28.952C177.778 28.4613 177.213 28.216 176.487 28.216C175.762 28.216 175.197 28.4613 174.791 28.952ZM190.034 30.936C190.034 32.2267 189.677 33.256 188.962 34.024C188.248 34.792 187.272 35.176 186.034 35.176C184.797 35.176 183.821 34.792 183.106 34.024C182.392 33.256 182.034 32.2267 182.034 30.936C182.034 29.656 182.397 28.6267 183.122 27.848C183.848 27.0693 184.818 26.68 186.034 26.68C187.25 26.68 188.221 27.0693 188.946 27.848C189.672 28.6267 190.034 29.656 190.034 30.936ZM184.322 28.952C183.928 29.432 183.73 30.0933 183.73 30.936C183.73 31.7787 183.933 32.44 184.338 32.92C184.754 33.4 185.33 33.64 186.066 33.64C186.792 33.64 187.352 33.4 187.746 32.92C188.141 32.44 188.338 31.7787 188.338 30.936C188.338 30.0933 188.13 29.432 187.714 28.952C187.309 28.4613 186.744 28.216 186.018 28.216C185.293 28.216 184.728 28.4613 184.322 28.952ZM199.646 35H197.63L195.054 31.56L193.822 32.872V35H192.126V23.624H193.822V30.696L197.214 26.84H199.454L196.174 30.36L199.646 35Z" fill="#1A202C"/>
<path d="M29.175 22.3208H31.0008V19.1408C30.6858 19.0975 29.6025 19 28.3408 19C25.7083 19 23.905 20.6558 23.905 23.6992V26.5H21V30.055H23.905V39H27.4667V30.0558H30.2542L30.6967 26.5008H27.4658V24.0517C27.4667 23.0242 27.7433 22.3208 29.175 22.3208Z" fill="#4267B2"/>
</svg>
