<svg width="20" height="10" viewBox="0 0 20 10" fill="none" xmlns="http://www.w3.org/2000/svg">
<path d="M8.69659 9.31732H7.27257L7.15814 8.33085C6.92928 8.66374 6.58599 8.94384 6.12826 9.17118C5.67902 9.39039 5.13653 9.5 4.50081 9.5C3.24631 9.5 2.18253 9.08999 1.30947 8.26996C0.436409 7.44993 -0.00012207 6.36198 -0.00012207 5.00609C-0.00012207 3.65832 0.449123 2.57037 1.34761 1.74222C2.25458 0.914073 3.34379 0.5 4.61524 0.5C5.71716 0.5 6.61565 0.755751 7.31071 1.26725C8.01425 1.77876 8.48892 2.40798 8.73474 3.15494L7.05642 3.72733C6.9208 3.28079 6.64532 2.89513 6.22998 2.57037C5.82312 2.23748 5.28487 2.07104 4.61524 2.07104C3.85237 2.07104 3.18698 2.32273 2.61906 2.82612C2.05963 3.3295 1.77991 4.05616 1.77991 5.00609C1.77991 5.93978 2.05115 6.66644 2.59363 7.18606C3.1446 7.70568 3.8227 7.96549 4.62795 7.96549C5.37387 7.96549 5.94602 7.78687 6.34441 7.42964C6.7428 7.06428 6.9759 6.68268 7.04371 6.28484H4.19566V4.82341H8.69659V9.31732Z" fill="#148564"/>
<path d="M12.2471 9.31732H10.4671V0.682679H12.2471V9.31732Z" fill="#148564"/>
<path d="M16.0711 9.31732H14.3038V0.682679H19.9999V2.27808H16.0584V4.40934H19.5676V5.95602H16.0711V9.31732Z" fill="#148564"/>
</svg>
