<svg width="747" height="465" viewBox="0 0 747 465" fill="none" xmlns="http://www.w3.org/2000/svg">
<rect y="357" width="70" height="43" fill="#D64541"/>
<circle cx="35" cy="377" r="12" fill="#FFA500"/>
<rect x="125" y="337" width="70" height="63" fill="#D64541"/>
<circle cx="160" cy="357" r="12" fill="#FFA500"/>
<rect x="250" y="317" width="70" height="83" fill="#D24944"/>
<circle cx="285" cy="337" r="12" fill="#FFA500"/>
<rect x="375" y="294" width="70" height="106" fill="#D64541"/>
<circle cx="410" cy="314" r="12" fill="#FFA500"/>
<rect x="500" y="270" width="70" height="130" fill="#D64541"/>
<circle cx="535" cy="290" r="12" fill="#FFA500"/>
<rect x="625" y="206" width="70" height="194" fill="#D64541"/>
<circle cx="660" cy="226" r="12" fill="#FFA500"/>
<path d="M35.5 376.5L160.5 358.5L285.5 337L410 314L535 290.5L639 240" stroke="#3FC380" stroke-width="7" stroke-linecap="round"/>
<path d="M616.729 231.231L663.579 227.387L632.827 262.933L633.748 246.615L614.664 255.026L612.491 250.073L630.448 240.118L616.729 231.231Z" fill="#3FC380"/>
<path d="M657.621 107.024C651.91 107.021 647.279 111.647 647.275 117.355C647.272 123.066 651.898 127.697 657.606 127.701C663.317 127.704 667.948 123.078 667.952 117.37C667.959 111.662 663.332 107.028 657.621 107.024Z" fill="#7CACD9"/>
<path d="M669.517 161.587L645.658 161.576L645.677 132.944L647.547 129.765L669.536 129.78L669.532 132.959L669.517 161.587Z" fill="#7CACD9"/>
<path d="M645.661 159.983V161.573L645.657 166.345L645.639 201.399C645.639 204.036 647.771 206.172 650.408 206.176C653.044 206.176 655.18 204.044 655.184 201.407L655.203 166.353L659.975 166.357L659.956 201.411C659.956 204.047 662.088 206.183 664.725 206.187C667.362 206.187 669.498 204.055 669.502 201.418L669.52 166.364L669.524 160.002L659.979 159.994L645.661 159.983Z" fill="#1A252F"/>
<path d="M666.193 137.175C665.307 137.175 664.42 136.861 663.71 136.221C662.187 134.848 662.064 132.503 663.437 130.981L674.826 118.342L679.898 101.896C680.504 99.9365 682.579 98.8405 684.539 99.4427C686.499 100.045 687.595 102.125 686.993 104.084L681.682 121.312C681.525 121.828 681.252 122.303 680.893 122.704L668.954 135.952C668.22 136.76 667.211 137.175 666.193 137.175Z" fill="#7CACD9"/>
<path d="M649.213 137.175C650.099 137.175 650.986 136.861 651.696 136.221C653.219 134.848 653.342 132.503 651.969 130.981L640.58 118.342L635.509 101.896C634.903 99.9365 632.827 98.8405 630.867 99.4427C628.907 100.045 627.811 102.125 628.413 104.084L633.724 121.312C633.881 121.828 634.155 122.303 634.514 122.704L646.453 135.952C647.186 136.76 648.196 137.175 649.213 137.175Z" fill="#7CACD9"/>
<path d="M659.013 134.407L660.221 133.199C660.539 132.881 660.539 132.369 660.221 132.051L658.5 130.326C658.183 130.008 657.67 130.008 657.352 130.326L655.628 132.047C655.31 132.365 655.31 132.877 655.628 133.195L656.836 134.407L655.209 153.939L657.909 157.32L660.614 153.942L659.013 134.407Z" fill="#999999"/>
<path d="M658.695 134.089L659.903 132.881C660.221 132.563 660.221 132.051 659.903 131.733L658.182 130.008C657.864 129.691 657.352 129.691 657.034 130.008L655.31 131.729C654.992 132.047 654.992 132.559 655.31 132.877L656.518 134.089L654.891 153.621L657.591 157.002L660.295 153.625L658.695 134.089Z" fill="#D64541"/>
<path d="M657.858 106.646C681.801 106.646 701.211 87.2364 701.211 63.2929C701.211 39.3493 681.801 19.9392 657.858 19.9392C633.914 19.9392 614.504 39.3493 614.504 63.2929C614.504 87.2364 633.914 106.646 657.858 106.646Z" fill="#D64541"/>
<path d="M657.857 100.453C678.38 100.453 695.017 83.8155 695.017 63.2928C695.017 42.77 678.38 26.1331 657.857 26.1331C637.334 26.1331 620.697 42.77 620.697 63.2928C620.697 83.8155 637.334 100.453 657.857 100.453Z" fill="white"/>
<path d="M657.856 94.2585C674.958 94.2585 688.822 80.3947 688.822 63.2927C688.822 46.1908 674.958 32.3269 657.856 32.3269C640.754 32.3269 626.891 46.1908 626.891 63.2927C626.891 80.3947 640.754 94.2585 657.856 94.2585Z" fill="#D64541"/>
<path d="M657.856 88.0648C671.537 88.0648 682.628 76.974 682.628 63.2929C682.628 49.6118 671.537 38.521 657.856 38.521C644.175 38.521 633.084 49.6118 633.084 63.2929C633.084 76.974 644.175 88.0648 657.856 88.0648Z" fill="white"/>
<path d="M657.857 81.8708C668.118 81.8708 676.435 73.5532 676.435 63.2928C676.435 53.0325 668.118 44.7148 657.857 44.7148C647.597 44.7148 639.279 53.0325 639.279 63.2928C639.279 73.5532 647.597 81.8708 657.857 81.8708Z" fill="#D64541"/>
<path d="M657.859 75.6809C664.7 75.6809 670.246 70.1347 670.246 63.2931C670.246 56.4515 664.7 50.9053 657.859 50.9053C651.017 50.9053 645.471 56.4515 645.471 63.2931C645.471 70.1347 651.017 75.6809 657.859 75.6809Z" fill="white"/>
<path d="M664.05 63.3173C664.066 59.8965 661.306 57.1103 657.885 57.0941C654.464 57.0779 651.678 59.8379 651.662 63.2587C651.646 66.6795 654.406 69.4657 657.827 69.4819C661.248 69.4981 664.034 66.7381 664.05 63.3173Z" fill="#D64541"/>
<path opacity="0.0244" d="M655.367 63.854C655.367 65.2043 656.459 66.2964 657.81 66.2964C659.16 66.2964 660.252 65.2043 660.252 63.854C660.252 62.5038 659.16 61.4116 657.81 61.4116C656.459 61.4116 655.367 62.5038 655.367 63.854Z" fill="#FDFDFD"/>
<path opacity="0.0488" d="M655.412 63.8543C655.412 65.1784 656.486 66.2518 657.81 66.2518C659.134 66.2518 660.207 65.1784 660.207 63.8543C660.207 62.5303 659.134 61.4568 657.81 61.4568C656.486 61.4568 655.412 62.5303 655.412 63.8543Z" fill="#FBFBFB"/>
<path opacity="0.0732" d="M660.165 63.864C660.175 62.5647 659.13 61.5032 657.831 61.493C656.531 61.4829 655.47 62.528 655.46 63.8273C655.45 65.1266 656.495 66.1882 657.794 66.1983C659.093 66.2085 660.155 65.1634 660.165 63.864Z" fill="#F9F9F9"/>
<path opacity="0.0976" d="M655.502 63.8541C655.502 65.1296 656.534 66.1619 657.81 66.1619C659.085 66.1619 660.117 65.1296 660.117 63.8541C660.117 62.5787 659.085 61.5464 657.81 61.5464C656.538 61.5464 655.502 62.5787 655.502 63.8541Z" fill="#F6F7F7"/>
<path opacity="0.122" d="M655.551 63.8542C655.551 65.1034 656.564 66.1171 657.814 66.1171C659.063 66.1171 660.077 65.1034 660.077 63.8542C660.077 62.6049 659.063 61.5913 657.814 61.5913C656.561 61.5913 655.551 62.6049 655.551 63.8542Z" fill="#F4F5F5"/>
<path opacity="0.1463" d="M655.598 63.8541C655.598 65.0772 656.589 66.0684 657.812 66.0684C659.035 66.0684 660.026 65.0772 660.026 63.8541C660.026 62.6311 659.035 61.6399 657.812 61.6399C656.589 61.6399 655.598 62.6311 655.598 63.8541Z" fill="#F2F2F3"/>
<path opacity="0.1707" d="M657.81 66.0235C659.008 66.0235 659.979 65.0523 659.979 63.8542C659.979 62.6561 659.008 61.6848 657.81 61.6848C656.612 61.6848 655.641 62.6561 655.641 63.8542C655.641 65.0523 656.612 66.0235 657.81 66.0235Z" fill="#F0F0F1"/>
<path opacity="0.1951" d="M655.686 63.8542C655.686 65.0287 656.636 65.9787 657.81 65.9787C658.984 65.9787 659.935 65.0287 659.935 63.8542C659.935 62.6798 658.984 61.7297 657.81 61.7297C656.636 61.7297 655.686 62.6798 655.686 63.8542Z" fill="#EEEEEF"/>
<path opacity="0.2195" d="M655.73 63.8543C655.73 65.0025 656.662 65.9339 657.81 65.9339C658.958 65.9339 659.89 65.0025 659.89 63.8543C659.89 62.706 658.958 61.7747 657.81 61.7747C656.662 61.7747 655.73 62.706 655.73 63.8543Z" fill="#ECECED"/>
<path opacity="0.2439" d="M655.773 63.8541C655.773 64.9761 656.682 65.8888 657.808 65.8888C658.93 65.8888 659.843 64.9799 659.843 63.8541C659.843 62.732 658.934 61.8193 657.808 61.8193C656.686 61.8193 655.773 62.732 655.773 63.8541Z" fill="#EAEAEB"/>
<path opacity="0.2683" d="M655.824 63.8541C655.824 64.9537 656.714 65.8439 657.814 65.8439C658.914 65.8439 659.804 64.9537 659.804 63.8541C659.804 62.7544 658.914 61.8643 657.814 61.8643C656.714 61.8643 655.824 62.7544 655.824 63.8541Z" fill="#E7E8E9"/>
<path opacity="0.2927" d="M655.869 63.8541C655.869 64.9275 656.741 65.7953 657.81 65.7953C658.884 65.7953 659.752 64.9238 659.752 63.8541C659.752 62.7806 658.88 61.9128 657.81 61.9128C656.737 61.9128 655.869 62.7806 655.869 63.8541Z" fill="#E5E6E7"/>
<path opacity="0.3171" d="M655.914 63.8543C655.914 64.9016 656.763 65.7507 657.81 65.7507C658.858 65.7507 659.707 64.9016 659.707 63.8543C659.707 62.8071 658.858 61.958 657.81 61.958C656.763 61.958 655.914 62.8071 655.914 63.8543Z" fill="#E3E4E5"/>
<path opacity="0.3415" d="M655.959 63.8541C655.959 64.8752 656.789 65.7056 657.81 65.7056C658.832 65.7056 659.662 64.8752 659.662 63.8541C659.662 62.833 658.832 62.0027 657.81 62.0027C656.789 62.0027 655.959 62.833 655.959 63.8541Z" fill="#E1E2E3"/>
<path opacity="0.3659" d="M656.004 63.8542C656.004 64.8528 656.812 65.6607 657.81 65.6607C658.809 65.6607 659.617 64.8528 659.617 63.8542C659.617 62.8555 658.809 62.0476 657.81 62.0476C656.816 62.0476 656.004 62.8555 656.004 63.8542Z" fill="#DFE0E1"/>
<path opacity="0.3902" d="M656.051 63.8542C656.051 64.8267 656.84 65.6159 657.812 65.6159C658.785 65.6159 659.574 64.8267 659.574 63.8542C659.574 62.8817 658.785 62.0925 657.812 62.0925C656.836 62.0925 656.051 62.8817 656.051 63.8542Z" fill="#DDDDDF"/>
<path opacity="0.4146" d="M656.098 63.8542C656.098 64.8005 656.864 65.571 657.814 65.571C658.761 65.571 659.527 64.8042 659.527 63.8542C659.527 62.9079 658.761 62.1411 657.814 62.1411C656.864 62.1374 656.098 62.9079 656.098 63.8542Z" fill="#DBDBDD"/>
<path opacity="0.439" d="M656.141 63.8542C656.141 64.7743 656.889 65.5224 657.809 65.5224C658.729 65.5224 659.477 64.7743 659.477 63.8542C659.477 62.9341 658.729 62.186 657.809 62.186C656.889 62.186 656.141 62.9304 656.141 63.8542Z" fill="#D8D9DB"/>
<path opacity="0.4634" d="M656.186 63.854C656.186 64.7517 656.911 65.4773 657.809 65.4773C658.707 65.4773 659.432 64.7517 659.432 63.854C659.432 62.9563 658.707 62.2307 657.809 62.2307C656.911 62.2307 656.186 62.9563 656.186 63.854Z" fill="#D6D7D9"/>
<path opacity="0.4878" d="M656.23 63.8543C656.23 64.7258 656.937 65.4327 657.809 65.4327C658.68 65.4327 659.387 64.7258 659.387 63.8543C659.387 62.9828 658.68 62.2759 657.809 62.2759C656.937 62.2759 656.23 62.9828 656.23 63.8543Z" fill="#D4D5D7"/>
<path opacity="0.5122" d="M656.275 63.8541C656.275 64.6994 656.96 65.3876 657.809 65.3876C658.654 65.3876 659.342 64.7031 659.342 63.8541C659.342 63.0088 658.658 62.3206 657.809 62.3206C656.964 62.3206 656.275 63.0088 656.275 63.8541Z" fill="#D2D3D4"/>
<path opacity="0.5366" d="M657.809 65.3427C658.631 65.3427 659.298 64.6763 659.298 63.8541C659.298 63.032 658.631 62.3655 657.809 62.3655C656.987 62.3655 656.32 63.032 656.32 63.8541C656.32 64.6763 656.987 65.3427 657.809 65.3427Z" fill="#D0D1D2"/>
<path opacity="0.561" d="M656.369 63.8543C656.369 64.651 657.016 65.2943 657.809 65.2943C658.606 65.2943 659.249 64.6473 659.249 63.8543C659.249 63.0576 658.602 62.4143 657.809 62.4143C657.012 62.4143 656.369 63.0576 656.369 63.8543Z" fill="#CECFD0"/>
<path opacity="0.5854" d="M656.416 63.8541C656.416 64.6246 657.041 65.2492 657.811 65.2492C658.582 65.2492 659.206 64.6246 659.206 63.8541C659.206 63.0836 658.582 62.459 657.811 62.459C657.041 62.459 656.416 63.0836 656.416 63.8541Z" fill="#CBCDCE"/>
<path opacity="0.6098" d="M656.461 63.8539C656.461 64.5982 657.067 65.2041 657.811 65.2041C658.556 65.2041 659.161 64.5982 659.161 63.8539C659.161 63.1096 658.556 62.5037 657.811 62.5037C657.067 62.5037 656.461 63.1096 656.461 63.8539Z" fill="#C9CBCC"/>
<path opacity="0.6341" d="M656.506 63.8542C656.506 64.5761 657.089 65.1596 657.811 65.1596C658.533 65.1596 659.117 64.5761 659.117 63.8542C659.117 63.1323 658.533 62.5488 657.811 62.5488C657.089 62.5488 656.506 63.1323 656.506 63.8542Z" fill="#C7C8CA"/>
<path opacity="0.6585" d="M656.549 63.8542C656.549 64.5499 657.114 65.1147 657.809 65.1147C658.505 65.1147 659.07 64.5499 659.07 63.8542C659.07 63.1585 658.505 62.5938 657.809 62.5938C657.114 62.5938 656.549 63.1585 656.549 63.8542Z" fill="#C5C6C8"/>
<path opacity="0.6829" d="M656.598 63.854C656.598 64.5235 657.14 65.0696 657.813 65.0696C658.483 65.0696 659.029 64.5273 659.029 63.854C659.029 63.1845 658.487 62.6384 657.813 62.6384C657.14 62.6384 656.598 63.1845 656.598 63.854Z" fill="#C3C4C6"/>
<path opacity="0.7073" d="M656.643 63.854C656.643 64.501 657.166 65.0209 657.81 65.0209C658.457 65.0209 658.977 64.4973 658.977 63.854C658.977 63.2069 658.453 62.687 657.81 62.687C657.166 62.687 656.643 63.2069 656.643 63.854Z" fill="#C1C2C4"/>
<path opacity="0.7317" d="M656.688 63.8543C656.688 64.4752 657.189 64.9763 657.81 64.9763C658.43 64.9763 658.932 64.4752 658.932 63.8543C658.932 63.2334 658.43 62.7322 657.81 62.7322C657.189 62.7322 656.688 63.2334 656.688 63.8543Z" fill="#BFC0C2"/>
<path opacity="0.7561" d="M656.734 63.8543C656.734 64.449 657.217 64.9315 657.812 64.9315C658.406 64.9315 658.889 64.449 658.889 63.8543C658.889 63.2596 658.406 62.7771 657.812 62.7771C657.217 62.7771 656.734 63.2596 656.734 63.8543Z" fill="#BCBEC0"/>
<path opacity="0.7805" d="M656.777 63.8541C656.777 64.4226 657.241 64.8864 657.81 64.8864C658.378 64.8864 658.842 64.4226 658.842 63.8541C658.842 63.2856 658.378 62.8218 657.81 62.8218C657.241 62.8218 656.777 63.2856 656.777 63.8541Z" fill="#BABCBE"/>
<path opacity="0.8049" d="M656.822 63.8541C656.822 64.4002 657.264 64.8416 657.81 64.8416C658.356 64.8416 658.797 64.4002 658.797 63.8541C658.797 63.3081 658.356 62.8667 657.81 62.8667C657.264 62.8667 656.822 63.3081 656.822 63.8541Z" fill="#B8BABC"/>
<path opacity="0.8293" d="M656.869 63.8542C656.869 64.3741 657.292 64.7967 657.812 64.7967C658.332 64.7967 658.754 64.3741 658.754 63.8542C658.754 63.3343 658.332 62.9116 657.812 62.9116C657.288 62.9116 656.869 63.3343 656.869 63.8542Z" fill="#B6B8BA"/>
<path opacity="0.8537" d="M656.916 63.8541C656.916 64.3479 657.316 64.7481 657.81 64.7481C658.304 64.7481 658.704 64.3479 658.704 63.8541C658.704 63.3604 658.304 62.9602 657.81 62.9602C657.316 62.9602 656.916 63.3604 656.916 63.8541Z" fill="#B4B6B8"/>
<path opacity="0.878" d="M656.961 63.8542C656.961 64.3217 657.342 64.7032 657.81 64.7032C658.278 64.7032 658.659 64.3217 658.659 63.8542C658.659 63.3866 658.278 63.0051 657.81 63.0051C657.342 63.0051 656.961 63.3829 656.961 63.8542Z" fill="#B2B3B6"/>
<path opacity="0.9024" d="M657.81 64.6584C658.254 64.6584 658.614 64.2983 658.614 63.8542C658.614 63.4101 658.254 63.05 657.81 63.05C657.366 63.05 657.006 63.4101 657.006 63.8542C657.006 64.2983 657.366 64.6584 657.81 64.6584Z" fill="#B0B1B4"/>
<path opacity="0.9268" d="M657.051 63.854C657.051 64.2729 657.391 64.6133 657.81 64.6133C658.229 64.6133 658.569 64.2729 658.569 63.854C658.569 63.4351 658.229 63.0947 657.81 63.0947C657.391 63.0947 657.051 63.4351 657.051 63.854Z" fill="#ADAFB2"/>
<path opacity="0.9512" d="M657.096 63.854C657.096 64.2468 657.414 64.5684 657.81 64.5684C658.203 64.5684 658.524 64.2505 658.524 63.854C658.524 63.4613 658.207 63.1396 657.81 63.1396C657.417 63.1396 657.096 63.4613 657.096 63.854Z" fill="#ABADB0"/>
<path opacity="0.9756" d="M657.145 63.8543C657.145 64.2246 657.444 64.5238 657.814 64.5238C658.184 64.5238 658.484 64.2246 658.484 63.8543C658.484 63.484 658.184 63.1848 657.814 63.1848C657.444 63.1848 657.145 63.484 657.145 63.8543Z" fill="#A9ABAE"/>
<path d="M657.81 64.4752C658.153 64.4752 658.431 64.1972 658.431 63.8543C658.431 63.5114 658.153 63.2334 657.81 63.2334C657.467 63.2334 657.189 63.5114 657.189 63.8543C657.189 64.1972 657.467 64.4752 657.81 64.4752Z" fill="#A7A9AC"/>
<path d="M610.157 8.90936L610.131 9.24972L610.157 15.1444L601.3 6.28742L601.248 0L610.157 8.90936Z" fill="#00CC71"/>
<path d="M594.104 7.1438L600.286 7.30089L609.143 16.1579C607.127 15.8699 605.059 15.8437 602.987 16.027L594.104 7.1438Z" fill="#00CC71"/>
<path d="M651.495 57.4993C651.921 57.0729 651.921 56.381 651.495 55.9508L601.749 6.20505C601.323 5.77866 600.631 5.77866 600.201 6.20505C599.774 6.63144 599.774 7.32339 600.201 7.75353L649.946 57.4993C650.373 57.9257 651.065 57.9257 651.495 57.4993Z" fill="#666666"/>
<path d="M657.736 63.7418L651.725 49.4277L649.986 55.9919L643.426 57.7312L657.736 63.7418Z" fill="#00CC71"/>
<path d="M66.6922 312.45C66.6922 312.336 66.6616 312.221 66.6005 312.114L30.0333 248.78C29.85 248.459 29.4376 248.348 29.1168 248.535C28.796 248.719 28.6852 249.131 28.8723 249.452L65.4395 312.787C65.6228 313.107 66.0353 313.218 66.3561 313.031C66.57 312.909 66.6922 312.68 66.6922 312.45Z" fill="#808285"/>
<path d="M76.1476 294.39C76.1476 286.21 73.4972 277.136 68.6356 268.715C63.5906 259.977 56.7393 252.946 49.3457 248.917C42.3645 245.117 35.6277 244.373 30.155 246.759L27.9247 242.895C27.4321 242.039 26.336 241.745 25.4844 242.241C24.6289 242.734 24.3348 243.83 24.8313 244.682L27.9056 250.006C28.3983 250.861 29.4944 251.155 30.346 250.659C34.9556 247.997 41.0966 248.493 47.6347 252.056C54.4593 255.772 60.818 262.322 65.5383 270.498C70.2586 278.675 72.7601 287.451 72.5577 295.227C72.3706 302.67 69.7316 308.238 65.1221 310.9C64.2666 311.393 63.9725 312.489 64.469 313.34L67.2874 318.221C67.7801 319.076 68.8762 319.371 69.7278 318.874C70.5833 318.381 70.8735 317.285 70.3809 316.434L68.4064 313.016C73.2069 309.468 75.9337 303.262 76.1323 295.318C76.1438 295.013 76.1476 294.7 76.1476 294.39Z" fill="#3FC380"/>
<path d="M44.2589 310.931H27.9707V317.446H44.2589V310.931Z" fill="#1A252F"/>
<path d="M20.8817 356.595C20.0186 356.595 19.1478 356.366 18.3573 355.888C16.0468 354.49 15.3097 351.485 16.7075 349.178L25.7395 331.385L28.3059 315.227C28.7298 312.561 31.2312 310.743 33.8969 311.167C36.5626 311.591 38.3805 314.093 37.9565 316.758L35.2412 333.86C35.1419 334.482 34.9242 335.082 34.5958 335.624L25.0673 354.234C24.1469 355.754 22.5353 356.595 20.8817 356.595Z" fill="#1A252F"/>
<path d="M42.1453 356.839C41.8054 356.839 41.4579 356.805 41.1103 356.728C38.4714 356.159 36.7948 353.559 37.3639 350.92L40.7666 332.844L33.9535 318.034C32.8269 315.582 33.9 312.68 36.3518 311.553C38.8037 310.426 41.7061 311.5 42.8327 313.951L50.3257 330.24C50.7687 331.202 50.8871 332.279 50.6617 333.31L46.9153 352.978C46.4226 355.269 44.3985 356.839 42.1453 356.839Z" fill="#1A252F"/>
<path d="M46.5272 303.064C45.8245 302.88 45.1791 302.498 44.675 301.945L33.3821 289.533C31.9691 287.978 32.0837 285.576 33.6342 284.163C35.1885 282.75 37.5907 282.865 39.0037 284.415L48.8759 295.265L59.3248 293.348C61.3909 292.97 63.3691 294.337 63.7472 296.399C64.1253 298.465 62.7581 300.444 60.6958 300.822L48.1694 303.121C47.6195 303.224 47.0581 303.201 46.5272 303.064Z" fill="#7CACD9"/>
<path d="M34.558 288.154C34.05 287.646 33.6796 286.989 33.523 286.229C33.1029 284.175 34.4281 282.166 36.4866 281.746L52.4272 278.484L64.1631 268.555C65.7671 267.199 68.1616 267.398 69.5212 269.002C70.8769 270.606 70.6783 273.004 69.0743 274.36L56.5976 284.919C56.1126 285.332 55.5282 285.614 54.9057 285.74L38.0142 289.197C36.7081 289.46 35.4287 289.028 34.558 288.154Z" fill="#7CACD9"/>
<path d="M27.9707 310.931V288.127C27.9707 283.628 31.6179 279.981 36.1167 279.981C40.6155 279.981 44.2589 283.628 44.2589 288.127V310.931H27.9707Z" fill="#7CACD9"/>
<path d="M36.1156 278.137C41.9623 278.137 46.702 273.397 46.702 267.55C46.702 261.704 41.9623 256.964 36.1156 256.964C30.269 256.964 25.5293 261.704 25.5293 267.55C25.5293 273.397 30.269 278.137 36.1156 278.137Z" fill="#7CACD9"/>
<path d="M21.9044 424.8V426.752H18.2244V436H16.1604V426.752H12.5284V424.8H21.9044ZM29.9269 431.888C29.9269 433.211 29.5483 434.256 28.7909 435.024C28.0443 435.792 27.0576 436.176 25.8309 436.176C24.6043 436.176 23.6176 435.792 22.8709 435.024C22.1243 434.256 21.7509 433.211 21.7509 431.888C21.7509 430.576 22.1243 429.536 22.8709 428.768C23.6283 428 24.6149 427.616 25.8309 427.616C27.0469 427.616 28.0336 428.005 28.7909 428.784C29.5483 429.552 29.9269 430.587 29.9269 431.888ZM23.7829 431.888C23.7829 432.677 23.9696 433.285 24.3429 433.712C24.7163 434.128 25.2229 434.336 25.8629 434.336C26.5029 434.336 26.9989 434.123 27.3509 433.696C27.7136 433.269 27.8949 432.667 27.8949 431.888C27.8949 431.099 27.7083 430.496 27.3349 430.08C26.9616 429.664 26.4549 429.456 25.8149 429.456C25.1749 429.456 24.6736 429.669 24.3109 430.096C23.9589 430.523 23.7829 431.12 23.7829 431.888ZM39.2963 424.624V436H37.3443V434.736C37.1203 435.184 36.7736 435.536 36.3043 435.792C35.8456 436.048 35.323 436.176 34.7363 436.176C33.659 436.176 32.7736 435.803 32.0803 435.056C31.387 434.299 31.0403 433.237 31.0403 431.872C31.0403 430.528 31.387 429.483 32.0803 428.736C32.7736 427.989 33.659 427.616 34.7363 427.616C35.291 427.616 35.7976 427.728 36.2563 427.952C36.715 428.165 37.067 428.464 37.3123 428.848V424.624H39.2963ZM37.3603 431.872C37.3603 431.083 37.147 430.469 36.7203 430.032C36.3043 429.595 35.7976 429.376 35.2003 429.376C34.571 429.376 34.0536 429.6 33.6483 430.048C33.2536 430.485 33.0563 431.093 33.0563 431.872C33.0563 432.64 33.2536 433.248 33.6483 433.696C34.0536 434.133 34.571 434.352 35.2003 434.352C35.7976 434.352 36.3043 434.133 36.7203 433.696C37.147 433.248 37.3603 432.64 37.3603 431.872ZM48.1543 430.288V436H46.2183V434.8C45.6636 435.717 44.7996 436.176 43.6263 436.176C42.901 436.176 42.2716 435.973 41.7383 435.568C41.2263 435.152 40.9703 434.539 40.9703 433.728C40.9703 432.299 41.845 431.456 43.5943 431.2L45.2583 430.96C45.8983 430.864 46.2183 430.576 46.2183 430.096C46.2183 429.819 46.0903 429.611 45.8343 429.472C45.589 429.323 45.2636 429.248 44.8583 429.248C44.3356 429.248 43.9356 429.349 43.6583 429.552C43.3916 429.755 43.205 430.059 43.0983 430.464H41.2103C41.3703 429.536 41.781 428.832 42.4423 428.352C43.1143 427.861 43.9783 427.616 45.0343 427.616C46.0263 427.616 46.7943 427.84 47.3383 428.288C47.8823 428.725 48.1543 429.392 48.1543 430.288ZM46.1703 432.544V432.096C45.9783 432.171 45.6263 432.251 45.1143 432.336L44.2823 432.464C43.397 432.581 42.9543 432.949 42.9543 433.568C42.9543 434.208 43.349 434.528 44.1383 434.528C44.7463 434.528 45.2316 434.336 45.5943 433.952C45.9783 433.568 46.1703 433.099 46.1703 432.544ZM55.4237 427.76H57.4717L54.1277 436.592C53.6264 437.947 52.5757 438.624 50.9757 438.624H50.1597V436.864H50.7677C51.6637 436.864 52.2184 436.56 52.4317 435.952L52.4477 435.888L49.2797 427.76H51.3917L53.4237 433.504L55.4237 427.76Z" fill="#1A202C"/>
<path d="M213.162 236.2V246H211.608V236.2H213.162ZM221.571 241.38V246H220.101V241.534C220.101 241.077 219.975 240.713 219.723 240.442C219.471 240.171 219.126 240.036 218.687 240.036C218.136 240.036 217.698 240.227 217.371 240.61C217.054 240.993 216.895 241.515 216.895 242.178V246H215.411V238.86H216.895V239.924C217.138 239.504 217.432 239.201 217.777 239.014C218.122 238.818 218.556 238.72 219.079 238.72C219.882 238.72 220.498 238.949 220.927 239.406C221.356 239.854 221.571 240.512 221.571 241.38ZM233.435 244.656V246H226.589V244.558L228.857 242.612L229.137 242.374C229.716 241.879 230.206 241.441 230.607 241.058C231.279 240.405 231.615 239.784 231.615 239.196C231.615 238.711 231.452 238.323 231.125 238.034C230.808 237.735 230.369 237.586 229.809 237.586C229.221 237.586 228.75 237.759 228.395 238.104C228.04 238.449 227.849 238.921 227.821 239.518H226.351C226.351 238.519 226.692 237.717 227.373 237.11C228.054 236.503 228.922 236.2 229.977 236.2C230.938 236.2 231.704 236.457 232.273 236.97C232.842 237.474 233.127 238.141 233.127 238.972C233.127 239.513 233.001 240.013 232.749 240.47C232.525 240.909 232.222 241.319 231.839 241.702C231.512 242.029 231.041 242.449 230.425 242.962L230.117 243.228L228.423 244.656H233.435ZM242.534 238.86H244.032L241.036 246.714C240.634 247.769 239.752 248.296 238.39 248.296H237.816V247.036H238.32C238.693 247.036 239.015 246.957 239.286 246.798C239.556 246.649 239.743 246.429 239.846 246.14L239.902 245.972L237.102 238.86H238.656L240.602 244.222L242.534 238.86ZM251.136 242.234V242.85H245.928C245.928 243.494 246.115 244.003 246.488 244.376C246.862 244.74 247.37 244.922 248.014 244.922C248.901 244.922 249.484 244.581 249.764 243.9H251.066C250.889 244.581 250.516 245.127 249.946 245.538C249.386 245.949 248.705 246.154 247.902 246.154C246.885 246.154 246.068 245.823 245.452 245.16C244.846 244.488 244.542 243.597 244.542 242.486C244.542 241.357 244.855 240.447 245.48 239.756C246.115 239.065 246.941 238.72 247.958 238.72C248.92 238.72 249.69 239.042 250.268 239.686C250.847 240.321 251.136 241.17 251.136 242.234ZM249.246 240.442C248.929 240.115 248.49 239.952 247.93 239.952C247.37 239.952 246.908 240.115 246.544 240.442C246.19 240.769 245.989 241.212 245.942 241.772H249.722C249.722 241.212 249.564 240.769 249.246 240.442ZM258.282 241.03V246H256.868V244.922C256.345 245.743 255.566 246.154 254.53 246.154C253.811 246.154 253.242 245.963 252.822 245.58C252.411 245.188 252.206 244.665 252.206 244.012C252.206 243.293 252.42 242.789 252.85 242.5C253.298 242.192 253.825 241.991 254.432 241.898L255.958 241.66C256.238 241.623 256.457 241.543 256.616 241.422C256.774 241.291 256.854 241.086 256.854 240.806C256.854 240.209 256.415 239.91 255.538 239.91C254.539 239.91 253.96 240.311 253.802 241.114H252.402C252.486 240.377 252.812 239.793 253.382 239.364C253.951 238.935 254.693 238.72 255.608 238.72C256.466 238.72 257.124 238.916 257.582 239.308C258.048 239.691 258.282 240.265 258.282 241.03ZM256.812 242.976V242.458C256.55 242.542 256.219 242.617 255.818 242.682L255.006 242.808C254.651 242.864 254.338 242.967 254.068 243.116C253.797 243.275 253.662 243.55 253.662 243.942C253.662 244.25 253.764 244.488 253.97 244.656C254.184 244.824 254.483 244.908 254.866 244.908C255.435 244.908 255.902 244.731 256.266 244.376C256.63 244.021 256.812 243.555 256.812 242.976ZM264.114 238.79V240.218H263.834C262.434 240.218 261.734 240.96 261.734 242.444V246H260.25V238.86H261.72V239.994C262.084 239.191 262.746 238.79 263.708 238.79H264.114ZM270.957 243.83C270.957 244.539 270.686 245.104 270.145 245.524C269.603 245.944 268.871 246.154 267.947 246.154C267.013 246.154 266.262 245.944 265.693 245.524C265.133 245.095 264.829 244.502 264.783 243.746H266.267C266.313 244.147 266.491 244.455 266.799 244.67C267.107 244.885 267.517 244.992 268.031 244.992C268.497 244.992 268.861 244.908 269.123 244.74C269.384 244.563 269.515 244.32 269.515 244.012C269.515 243.751 269.412 243.569 269.207 243.466C269.011 243.354 268.609 243.242 268.003 243.13C267.349 243.009 266.822 242.897 266.421 242.794C265.487 242.505 265.021 241.903 265.021 240.988C265.021 240.288 265.273 239.737 265.777 239.336C266.281 238.925 266.967 238.72 267.835 238.72C268.703 238.72 269.393 238.93 269.907 239.35C270.429 239.761 270.719 240.33 270.775 241.058H269.361C269.258 240.283 268.759 239.896 267.863 239.896C267.433 239.896 267.088 239.989 266.827 240.176C266.565 240.363 266.435 240.61 266.435 240.918C266.472 241.226 266.598 241.436 266.813 241.548C267.027 241.66 267.471 241.767 268.143 241.87C268.852 241.991 269.356 242.094 269.655 242.178C270.037 242.281 270.35 242.472 270.593 242.752C270.835 243.023 270.957 243.382 270.957 243.83ZM279.873 238.86H281.371L278.375 246.714C277.974 247.769 277.092 248.296 275.729 248.296H275.155V247.036H275.659C276.033 247.036 276.355 246.957 276.625 246.798C276.896 246.649 277.083 246.429 277.185 246.14L277.241 245.972L274.441 238.86H275.995L277.941 244.222L279.873 238.86ZM288.882 242.444C288.882 243.573 288.569 244.474 287.944 245.146C287.319 245.818 286.465 246.154 285.382 246.154C284.299 246.154 283.445 245.818 282.82 245.146C282.195 244.474 281.882 243.573 281.882 242.444C281.882 241.324 282.199 240.423 282.834 239.742C283.469 239.061 284.318 238.72 285.382 238.72C286.446 238.72 287.295 239.061 287.93 239.742C288.565 240.423 288.882 241.324 288.882 242.444ZM283.884 240.708C283.539 241.128 283.366 241.707 283.366 242.444C283.366 243.181 283.543 243.76 283.898 244.18C284.262 244.6 284.766 244.81 285.41 244.81C286.045 244.81 286.535 244.6 286.88 244.18C287.225 243.76 287.398 243.181 287.398 242.444C287.398 241.707 287.216 241.128 286.852 240.708C286.497 240.279 286.003 240.064 285.368 240.064C284.733 240.064 284.239 240.279 283.884 240.708ZM294.968 238.86H296.438V246H295.01V244.796C294.618 245.655 293.936 246.084 292.966 246.084C292.172 246.084 291.538 245.837 291.062 245.342C290.595 244.847 290.362 244.18 290.362 243.34V238.86H291.832V243.2C291.832 243.723 291.953 244.124 292.196 244.404C292.448 244.675 292.802 244.81 293.26 244.81C293.82 244.81 294.244 244.595 294.534 244.166C294.823 243.727 294.968 243.111 294.968 242.318V238.86ZM304.611 246.154C303.556 246.154 302.716 245.823 302.091 245.16C301.475 244.488 301.167 243.597 301.167 242.486C301.167 241.366 301.489 240.461 302.133 239.77C302.777 239.07 303.622 238.72 304.667 238.72C305.563 238.72 306.296 238.972 306.865 239.476C307.434 239.98 307.728 240.633 307.747 241.436H306.305C306.268 241.007 306.104 240.671 305.815 240.428C305.535 240.176 305.148 240.05 304.653 240.05C304.028 240.05 303.538 240.265 303.183 240.694C302.828 241.114 302.651 241.693 302.651 242.43C302.651 243.167 302.824 243.751 303.169 244.18C303.524 244.6 304.014 244.81 304.639 244.81C305.115 244.81 305.502 244.684 305.801 244.432C306.109 244.171 306.286 243.821 306.333 243.382H307.789C307.705 244.241 307.378 244.917 306.809 245.412C306.24 245.907 305.507 246.154 304.611 246.154ZM315.858 242.444C315.858 243.573 315.545 244.474 314.92 245.146C314.294 245.818 313.44 246.154 312.358 246.154C311.275 246.154 310.421 245.818 309.796 245.146C309.17 244.474 308.858 243.573 308.858 242.444C308.858 241.324 309.175 240.423 309.81 239.742C310.444 239.061 311.294 238.72 312.358 238.72C313.422 238.72 314.271 239.061 314.906 239.742C315.54 240.423 315.858 241.324 315.858 242.444ZM310.86 240.708C310.514 241.128 310.342 241.707 310.342 242.444C310.342 243.181 310.519 243.76 310.874 244.18C311.238 244.6 311.742 244.81 312.386 244.81C313.02 244.81 313.51 244.6 313.856 244.18C314.201 243.76 314.374 243.181 314.374 242.444C314.374 241.707 314.192 241.128 313.828 240.708C313.473 240.279 312.978 240.064 312.344 240.064C311.709 240.064 311.214 240.279 310.86 240.708ZM321.944 238.86H323.414V246H321.986V244.796C321.594 245.655 320.912 246.084 319.942 246.084C319.148 246.084 318.514 245.837 318.038 245.342C317.571 244.847 317.338 244.18 317.338 243.34V238.86H318.808V243.2C318.808 243.723 318.929 244.124 319.172 244.404C319.424 244.675 319.778 244.81 320.236 244.81C320.796 244.81 321.22 244.595 321.51 244.166C321.799 243.727 321.944 243.111 321.944 242.318V238.86ZM326.938 236.046V246H325.454V236.046H326.938ZM334 236.046H335.484V246H334.042V244.81C333.51 245.706 332.693 246.154 331.592 246.154C330.668 246.154 329.921 245.813 329.352 245.132C328.783 244.441 328.498 243.536 328.498 242.416C328.498 241.324 328.801 240.437 329.408 239.756C330.015 239.065 330.785 238.72 331.718 238.72C332.782 238.72 333.543 239.112 334 239.896V236.046ZM334.056 242.416C334.056 241.697 333.869 241.114 333.496 240.666C333.123 240.218 332.628 239.994 332.012 239.994C331.396 239.994 330.901 240.218 330.528 240.666C330.164 241.105 329.982 241.683 329.982 242.402C329.982 243.13 330.164 243.718 330.528 244.166C330.901 244.614 331.396 244.838 332.012 244.838C332.628 244.838 333.123 244.619 333.496 244.18C333.869 243.732 334.056 243.144 334.056 242.416ZM347.139 241.38V246H345.669V241.534C345.669 241.077 345.543 240.713 345.291 240.442C345.039 240.171 344.694 240.036 344.255 240.036C343.704 240.036 343.266 240.227 342.939 240.61C342.622 240.993 342.463 241.515 342.463 242.178V246H340.979V236.046H342.463V239.98C342.706 239.532 342.995 239.21 343.331 239.014C343.676 238.818 344.115 238.72 344.647 238.72C345.45 238.72 346.066 238.949 346.495 239.406C346.924 239.854 347.139 240.512 347.139 241.38ZM354.693 241.03V246H353.279V244.922C352.756 245.743 351.977 246.154 350.941 246.154C350.222 246.154 349.653 245.963 349.233 245.58C348.822 245.188 348.617 244.665 348.617 244.012C348.617 243.293 348.832 242.789 349.261 242.5C349.709 242.192 350.236 241.991 350.843 241.898L352.369 241.66C352.649 241.623 352.868 241.543 353.027 241.422C353.186 241.291 353.265 241.086 353.265 240.806C353.265 240.209 352.826 239.91 351.949 239.91C350.95 239.91 350.372 240.311 350.213 241.114H348.813C348.897 240.377 349.224 239.793 349.793 239.364C350.362 238.935 351.104 238.72 352.019 238.72C352.878 238.72 353.536 238.916 353.993 239.308C354.46 239.691 354.693 240.265 354.693 241.03ZM353.223 242.976V242.458C352.962 242.542 352.63 242.617 352.229 242.682L351.417 242.808C351.062 242.864 350.75 242.967 350.479 243.116C350.208 243.275 350.073 243.55 350.073 243.942C350.073 244.25 350.176 244.488 350.381 244.656C350.596 244.824 350.894 244.908 351.277 244.908C351.846 244.908 352.313 244.731 352.677 244.376C353.041 244.021 353.223 243.555 353.223 242.976ZM361.477 238.86H363.003L360.203 246H358.523L355.737 238.86H357.319L359.391 244.572L361.477 238.86ZM370.087 242.234V242.85H364.879C364.879 243.494 365.065 244.003 365.439 244.376C365.812 244.74 366.321 244.922 366.965 244.922C367.851 244.922 368.435 244.581 368.715 243.9H370.017C369.839 244.581 369.466 245.127 368.897 245.538C368.337 245.949 367.655 246.154 366.853 246.154C365.835 246.154 365.019 245.823 364.403 245.16C363.796 244.488 363.493 243.597 363.493 242.486C363.493 241.357 363.805 240.447 364.431 239.756C365.065 239.065 365.891 238.72 366.909 238.72C367.87 238.72 368.64 239.042 369.219 239.686C369.797 240.321 370.087 241.17 370.087 242.234ZM368.197 240.442C367.879 240.115 367.441 239.952 366.881 239.952C366.321 239.952 365.859 240.115 365.495 240.442C365.14 240.769 364.939 241.212 364.893 241.772H368.673C368.673 241.212 368.514 240.769 368.197 240.442Z" fill="#5D5F5E"/>
<path d="M246.659 272.16V274.032H245.619V272.144C244.488 272.027 243.571 271.648 242.867 271.008C242.152 270.357 241.79 269.435 241.779 268.24H243.811C243.822 268.859 243.987 269.36 244.307 269.744C244.627 270.128 245.064 270.373 245.619 270.48V267.2C244.968 267.029 244.392 266.827 243.891 266.592C242.75 266.059 242.179 265.141 242.179 263.84C242.179 262.869 242.488 262.112 243.107 261.568C243.726 261.013 244.563 260.699 245.619 260.624V259.184H246.659V260.64C247.662 260.715 248.499 261.024 249.171 261.568C249.832 262.101 250.168 262.88 250.179 263.904H248.163C248.12 263.061 247.619 262.539 246.659 262.336V265.648C247.384 265.819 248.003 266.011 248.515 266.224C249.059 266.448 249.502 266.789 249.843 267.248C250.184 267.696 250.355 268.261 250.355 268.944C250.355 269.925 250.008 270.688 249.315 271.232C248.611 271.776 247.726 272.085 246.659 272.16ZM245.619 265.344V262.304C245.15 262.368 244.782 262.533 244.515 262.8C244.248 263.067 244.115 263.397 244.115 263.792C244.115 264.165 244.238 264.475 244.483 264.72C244.728 264.965 245.107 265.173 245.619 265.344ZM248.371 269.072C248.371 268.667 248.232 268.347 247.955 268.112C247.678 267.877 247.246 267.675 246.659 267.504V270.544C247.182 270.501 247.598 270.352 247.907 270.096C248.216 269.829 248.371 269.488 248.371 269.072ZM259.574 268.944C259.574 269.936 259.196 270.725 258.438 271.312C257.681 271.888 256.748 272.176 255.638 272.176C254.465 272.176 253.462 271.84 252.63 271.168C251.809 270.496 251.398 269.584 251.398 268.432H253.462C253.462 269.029 253.649 269.493 254.022 269.824C254.406 270.155 254.929 270.32 255.59 270.32C256.177 270.32 256.646 270.197 256.998 269.952C257.35 269.707 257.526 269.349 257.526 268.88C257.526 267.909 256.758 267.424 255.222 267.424H254.39V265.632H255.158C255.798 265.632 256.31 265.488 256.694 265.2C257.078 264.901 257.27 264.512 257.27 264.032C257.27 263.595 257.11 263.259 256.79 263.024C256.481 262.779 256.065 262.656 255.542 262.656C254.23 262.656 253.574 263.296 253.574 264.576H251.526C251.526 263.371 251.91 262.443 252.678 261.792C253.446 261.131 254.422 260.8 255.606 260.8C256.662 260.8 257.548 261.067 258.262 261.6C258.977 262.133 259.334 262.859 259.334 263.776C259.334 264.416 259.164 264.96 258.822 265.408C258.492 265.856 258.06 266.165 257.526 266.336C258.198 266.592 258.705 266.928 259.046 267.344C259.398 267.76 259.574 268.293 259.574 268.944ZM268.8 268.272C268.8 269.339 268.437 270.256 267.712 271.024C266.997 271.792 266.037 272.176 264.832 272.176C263.754 272.176 262.832 271.851 262.064 271.2C261.296 270.539 260.89 269.643 260.848 268.512H262.896C262.938 269.077 263.13 269.52 263.472 269.84C263.813 270.16 264.24 270.32 264.752 270.32C265.36 270.32 265.84 270.128 266.192 269.744C266.544 269.349 266.72 268.869 266.72 268.304C266.72 267.76 266.56 267.307 266.24 266.944C265.92 266.581 265.477 266.4 264.912 266.4C264.24 266.4 263.69 266.613 263.264 267.04H261.216L262.208 260.992H268.24V262.848H263.744L263.344 265.264C263.845 264.816 264.501 264.592 265.312 264.592C266.389 264.592 267.237 264.955 267.856 265.68C268.485 266.395 268.8 267.259 268.8 268.272ZM277.282 260.992V262.944L272.882 272H270.834L275.202 262.976H269.122V260.992H277.282ZM286.509 272H284.109L281.693 268.752L280.701 269.808V272H278.717V260.624H280.701V267.248L283.805 263.76H286.381L283.037 267.328L286.509 272ZM291.505 266.08V267.84H286.913V266.08H291.505ZM297.348 272.16V274.032H296.308V272.144C295.178 272.027 294.26 271.648 293.556 271.008C292.842 270.357 292.479 269.435 292.468 268.24H294.5C294.511 268.859 294.676 269.36 294.996 269.744C295.316 270.128 295.754 270.373 296.308 270.48V267.2C295.658 267.029 295.082 266.827 294.58 266.592C293.439 266.059 292.868 265.141 292.868 263.84C292.868 262.869 293.178 262.112 293.796 261.568C294.415 261.013 295.252 260.699 296.308 260.624V259.184H297.348V260.64C298.351 260.715 299.188 261.024 299.86 261.568C300.522 262.101 300.858 262.88 300.868 263.904H298.852C298.81 263.061 298.308 262.539 297.348 262.336V265.648C298.074 265.819 298.692 266.011 299.204 266.224C299.748 266.448 300.191 266.789 300.532 267.248C300.874 267.696 301.044 268.261 301.044 268.944C301.044 269.925 300.698 270.688 300.004 271.232C299.3 271.776 298.415 272.085 297.348 272.16ZM296.308 265.344V262.304C295.839 262.368 295.471 262.533 295.204 262.8C294.938 263.067 294.804 263.397 294.804 263.792C294.804 264.165 294.927 264.475 295.172 264.72C295.418 264.965 295.796 265.173 296.308 265.344ZM299.06 269.072C299.06 268.667 298.922 268.347 298.644 268.112C298.367 267.877 297.935 267.675 297.348 267.504V270.544C297.871 270.501 298.287 270.352 298.596 270.096C298.906 269.829 299.06 269.488 299.06 269.072ZM310.2 268.272C310.2 269.339 309.837 270.256 309.112 271.024C308.397 271.792 307.437 272.176 306.232 272.176C305.154 272.176 304.232 271.851 303.464 271.2C302.696 270.539 302.29 269.643 302.248 268.512H304.296C304.338 269.077 304.53 269.52 304.872 269.84C305.213 270.16 305.64 270.32 306.152 270.32C306.76 270.32 307.24 270.128 307.592 269.744C307.944 269.349 308.12 268.869 308.12 268.304C308.12 267.76 307.96 267.307 307.64 266.944C307.32 266.581 306.877 266.4 306.312 266.4C305.64 266.4 305.09 266.613 304.664 267.04H302.616L303.608 260.992H309.64V262.848H305.144L304.744 265.264C305.245 264.816 305.901 264.592 306.712 264.592C307.789 264.592 308.637 264.955 309.256 265.68C309.885 266.395 310.2 267.259 310.2 268.272ZM318.682 260.992V262.944L314.282 272H312.234L316.602 262.976H310.522V260.992H318.682ZM327.393 260.992V262.944L322.993 272H320.945L325.313 262.976H319.233V260.992H327.393ZM336.62 272H334.22L331.804 268.752L330.812 269.808V272H328.828V260.624H330.812V267.248L333.916 263.76H336.492L333.148 267.328L336.62 272Z" fill="#1A202C"/>
<path d="M584.081 423.2V433H582.527V423.2H584.081ZM592.49 428.38V433H591.02V428.534C591.02 428.077 590.894 427.713 590.642 427.442C590.39 427.171 590.045 427.036 589.606 427.036C589.056 427.036 588.617 427.227 588.29 427.61C587.973 427.993 587.814 428.515 587.814 429.178V433H586.33V425.86H587.814V426.924C588.057 426.504 588.351 426.201 588.696 426.014C589.042 425.818 589.476 425.72 589.998 425.72C590.801 425.72 591.417 425.949 591.846 426.406C592.276 426.854 592.49 427.512 592.49 428.38ZM600.612 423.368V433H599.142V425.216C598.489 425.701 597.677 426 596.706 426.112V424.712C597.733 424.544 598.606 424.096 599.324 423.368H600.612ZM609.371 428.17C609.371 431.493 608.246 433.154 605.997 433.154C603.748 433.154 602.623 431.493 602.623 428.17C602.623 424.857 603.748 423.2 605.997 423.2C608.246 423.2 609.371 424.857 609.371 428.17ZM607.859 428.17C607.859 425.781 607.238 424.586 605.997 424.586C604.756 424.586 604.135 425.781 604.135 428.17C604.135 430.569 604.756 431.768 605.997 431.768C607.238 431.768 607.859 430.569 607.859 428.17ZM618.614 425.86H620.112L617.116 433.714C616.715 434.769 615.833 435.296 614.47 435.296H613.896V434.036H614.4C614.774 434.036 615.096 433.957 615.366 433.798C615.637 433.649 615.824 433.429 615.926 433.14L615.982 432.972L613.182 425.86H614.736L616.682 431.222L618.614 425.86ZM627.217 429.234V429.85H622.009C622.009 430.494 622.196 431.003 622.569 431.376C622.942 431.74 623.451 431.922 624.095 431.922C624.982 431.922 625.565 431.581 625.845 430.9H627.147C626.97 431.581 626.596 432.127 626.027 432.538C625.467 432.949 624.786 433.154 623.983 433.154C622.966 433.154 622.149 432.823 621.533 432.16C620.926 431.488 620.623 430.597 620.623 429.486C620.623 428.357 620.936 427.447 621.561 426.756C622.196 426.065 623.022 425.72 624.039 425.72C625 425.72 625.77 426.042 626.349 426.686C626.928 427.321 627.217 428.17 627.217 429.234ZM625.327 427.442C625.01 427.115 624.571 426.952 624.011 426.952C623.451 426.952 622.989 427.115 622.625 427.442C622.27 427.769 622.07 428.212 622.023 428.772H625.803C625.803 428.212 625.644 427.769 625.327 427.442ZM634.362 428.03V433H632.948V431.922C632.426 432.743 631.646 433.154 630.61 433.154C629.892 433.154 629.322 432.963 628.902 432.58C628.492 432.188 628.286 431.665 628.286 431.012C628.286 430.293 628.501 429.789 628.93 429.5C629.378 429.192 629.906 428.991 630.512 428.898L632.038 428.66C632.318 428.623 632.538 428.543 632.696 428.422C632.855 428.291 632.934 428.086 632.934 427.806C632.934 427.209 632.496 426.91 631.618 426.91C630.62 426.91 630.041 427.311 629.882 428.114H628.482C628.566 427.377 628.893 426.793 629.462 426.364C630.032 425.935 630.774 425.72 631.688 425.72C632.547 425.72 633.205 425.916 633.662 426.308C634.129 426.691 634.362 427.265 634.362 428.03ZM632.892 429.976V429.458C632.631 429.542 632.3 429.617 631.898 429.682L631.086 429.808C630.732 429.864 630.419 429.967 630.148 430.116C629.878 430.275 629.742 430.55 629.742 430.942C629.742 431.25 629.845 431.488 630.05 431.656C630.265 431.824 630.564 431.908 630.946 431.908C631.516 431.908 631.982 431.731 632.346 431.376C632.71 431.021 632.892 430.555 632.892 429.976ZM640.194 425.79V427.218H639.914C638.514 427.218 637.814 427.96 637.814 429.444V433H636.33V425.86H637.8V426.994C638.164 426.191 638.827 425.79 639.788 425.79H640.194ZM647.038 430.83C647.038 431.539 646.767 432.104 646.226 432.524C645.684 432.944 644.952 433.154 644.028 433.154C643.094 433.154 642.343 432.944 641.774 432.524C641.214 432.095 640.91 431.502 640.864 430.746H642.348C642.394 431.147 642.572 431.455 642.88 431.67C643.188 431.885 643.598 431.992 644.112 431.992C644.578 431.992 644.942 431.908 645.204 431.74C645.465 431.563 645.596 431.32 645.596 431.012C645.596 430.751 645.493 430.569 645.288 430.466C645.092 430.354 644.69 430.242 644.084 430.13C643.43 430.009 642.903 429.897 642.502 429.794C641.568 429.505 641.102 428.903 641.102 427.988C641.102 427.288 641.354 426.737 641.858 426.336C642.362 425.925 643.048 425.72 643.916 425.72C644.784 425.72 645.474 425.93 645.988 426.35C646.51 426.761 646.8 427.33 646.856 428.058H645.442C645.339 427.283 644.84 426.896 643.944 426.896C643.514 426.896 643.169 426.989 642.908 427.176C642.646 427.363 642.516 427.61 642.516 427.918C642.553 428.226 642.679 428.436 642.894 428.548C643.108 428.66 643.552 428.767 644.224 428.87C644.933 428.991 645.437 429.094 645.736 429.178C646.118 429.281 646.431 429.472 646.674 429.752C646.916 430.023 647.038 430.382 647.038 430.83ZM655.954 425.86H657.452L654.456 433.714C654.055 434.769 653.173 435.296 651.81 435.296H651.236V434.036H651.74C652.113 434.036 652.435 433.957 652.706 433.798C652.977 433.649 653.163 433.429 653.266 433.14L653.322 432.972L650.522 425.86H652.076L654.022 431.222L655.954 425.86ZM664.963 429.444C664.963 430.573 664.65 431.474 664.025 432.146C663.399 432.818 662.545 433.154 661.463 433.154C660.38 433.154 659.526 432.818 658.901 432.146C658.275 431.474 657.963 430.573 657.963 429.444C657.963 428.324 658.28 427.423 658.915 426.742C659.549 426.061 660.399 425.72 661.463 425.72C662.527 425.72 663.376 426.061 664.011 426.742C664.645 427.423 664.963 428.324 664.963 429.444ZM659.965 427.708C659.619 428.128 659.447 428.707 659.447 429.444C659.447 430.181 659.624 430.76 659.979 431.18C660.343 431.6 660.847 431.81 661.491 431.81C662.125 431.81 662.615 431.6 662.961 431.18C663.306 430.76 663.479 430.181 663.479 429.444C663.479 428.707 663.297 428.128 662.933 427.708C662.578 427.279 662.083 427.064 661.449 427.064C660.814 427.064 660.319 427.279 659.965 427.708ZM671.049 425.86H672.519V433H671.091V431.796C670.699 432.655 670.017 433.084 669.047 433.084C668.253 433.084 667.619 432.837 667.143 432.342C666.676 431.847 666.443 431.18 666.443 430.34V425.86H667.913V430.2C667.913 430.723 668.034 431.124 668.277 431.404C668.529 431.675 668.883 431.81 669.341 431.81C669.901 431.81 670.325 431.595 670.615 431.166C670.904 430.727 671.049 430.111 671.049 429.318V425.86ZM680.692 433.154C679.637 433.154 678.797 432.823 678.172 432.16C677.556 431.488 677.248 430.597 677.248 429.486C677.248 428.366 677.57 427.461 678.214 426.77C678.858 426.07 679.702 425.72 680.748 425.72C681.644 425.72 682.376 425.972 682.946 426.476C683.515 426.98 683.809 427.633 683.828 428.436H682.386C682.348 428.007 682.185 427.671 681.896 427.428C681.616 427.176 681.228 427.05 680.734 427.05C680.108 427.05 679.618 427.265 679.264 427.694C678.909 428.114 678.732 428.693 678.732 429.43C678.732 430.167 678.904 430.751 679.25 431.18C679.604 431.6 680.094 431.81 680.72 431.81C681.196 431.81 681.583 431.684 681.882 431.432C682.19 431.171 682.367 430.821 682.414 430.382H683.87C683.786 431.241 683.459 431.917 682.89 432.412C682.32 432.907 681.588 433.154 680.692 433.154ZM691.938 429.444C691.938 430.573 691.626 431.474 691 432.146C690.375 432.818 689.521 433.154 688.438 433.154C687.356 433.154 686.502 432.818 685.876 432.146C685.251 431.474 684.938 430.573 684.938 429.444C684.938 428.324 685.256 427.423 685.89 426.742C686.525 426.061 687.374 425.72 688.438 425.72C689.502 425.72 690.352 426.061 690.986 426.742C691.621 427.423 691.938 428.324 691.938 429.444ZM686.94 427.708C686.595 428.128 686.422 428.707 686.422 429.444C686.422 430.181 686.6 430.76 686.954 431.18C687.318 431.6 687.822 431.81 688.466 431.81C689.101 431.81 689.591 431.6 689.936 431.18C690.282 430.76 690.454 430.181 690.454 429.444C690.454 428.707 690.272 428.128 689.908 427.708C689.554 427.279 689.059 427.064 688.424 427.064C687.79 427.064 687.295 427.279 686.94 427.708ZM698.024 425.86H699.494V433H698.066V431.796C697.674 432.655 696.993 433.084 696.022 433.084C695.229 433.084 694.594 432.837 694.118 432.342C693.652 431.847 693.418 431.18 693.418 430.34V425.86H694.888V430.2C694.888 430.723 695.01 431.124 695.252 431.404C695.504 431.675 695.859 431.81 696.316 431.81C696.876 431.81 697.301 431.595 697.59 431.166C697.88 430.727 698.024 430.111 698.024 429.318V425.86ZM703.018 423.046V433H701.534V423.046H703.018ZM710.081 423.046H711.565V433H710.123V431.81C709.591 432.706 708.774 433.154 707.673 433.154C706.749 433.154 706.002 432.813 705.433 432.132C704.864 431.441 704.579 430.536 704.579 429.416C704.579 428.324 704.882 427.437 705.489 426.756C706.096 426.065 706.866 425.72 707.799 425.72C708.863 425.72 709.624 426.112 710.081 426.896V423.046ZM710.137 429.416C710.137 428.697 709.95 428.114 709.577 427.666C709.204 427.218 708.709 426.994 708.093 426.994C707.477 426.994 706.982 427.218 706.609 427.666C706.245 428.105 706.063 428.683 706.063 429.402C706.063 430.13 706.245 430.718 706.609 431.166C706.982 431.614 707.477 431.838 708.093 431.838C708.709 431.838 709.204 431.619 709.577 431.18C709.95 430.732 710.137 430.144 710.137 429.416ZM723.22 428.38V433H721.75V428.534C721.75 428.077 721.624 427.713 721.372 427.442C721.12 427.171 720.774 427.036 720.336 427.036C719.785 427.036 719.346 427.227 719.02 427.61C718.702 427.993 718.544 428.515 718.544 429.178V433H717.06V423.046H718.544V426.98C718.786 426.532 719.076 426.21 719.412 426.014C719.757 425.818 720.196 425.72 720.728 425.72C721.53 425.72 722.146 425.949 722.576 426.406C723.005 426.854 723.22 427.512 723.22 428.38ZM730.774 428.03V433H729.36V431.922C728.837 432.743 728.058 433.154 727.022 433.154C726.303 433.154 725.734 432.963 725.314 432.58C724.903 432.188 724.698 431.665 724.698 431.012C724.698 430.293 724.912 429.789 725.342 429.5C725.79 429.192 726.317 428.991 726.924 428.898L728.45 428.66C728.73 428.623 728.949 428.543 729.108 428.422C729.266 428.291 729.346 428.086 729.346 427.806C729.346 427.209 728.907 426.91 728.03 426.91C727.031 426.91 726.452 427.311 726.294 428.114H724.894C724.978 427.377 725.304 426.793 725.874 426.364C726.443 425.935 727.185 425.72 728.1 425.72C728.958 425.72 729.616 425.916 730.074 426.308C730.54 426.691 730.774 427.265 730.774 428.03ZM729.304 429.976V429.458C729.042 429.542 728.711 429.617 728.31 429.682L727.498 429.808C727.143 429.864 726.83 429.967 726.56 430.116C726.289 430.275 726.154 430.55 726.154 430.942C726.154 431.25 726.256 431.488 726.462 431.656C726.676 431.824 726.975 431.908 727.358 431.908C727.927 431.908 728.394 431.731 728.758 431.376C729.122 431.021 729.304 430.555 729.304 429.976ZM737.558 425.86H739.084L736.284 433H734.604L731.818 425.86H733.4L735.472 431.572L737.558 425.86ZM746.167 429.234V429.85H740.959C740.959 430.494 741.146 431.003 741.519 431.376C741.893 431.74 742.401 431.922 743.045 431.922C743.932 431.922 744.515 431.581 744.795 430.9H746.097C745.92 431.581 745.547 432.127 744.977 432.538C744.417 432.949 743.736 433.154 742.933 433.154C741.916 433.154 741.099 432.823 740.483 432.16C739.877 431.488 739.573 430.597 739.573 429.486C739.573 428.357 739.886 427.447 740.511 426.756C741.146 426.065 741.972 425.72 742.989 425.72C743.951 425.72 744.721 426.042 745.299 426.686C745.878 427.321 746.167 428.17 746.167 429.234ZM744.277 427.442C743.96 427.115 743.521 426.952 742.961 426.952C742.401 426.952 741.939 427.115 741.575 427.442C741.221 427.769 741.02 428.212 740.973 428.772H744.753C744.753 428.212 744.595 427.769 744.277 427.442Z" fill="#5D5F5E"/>
<path d="M620.909 459.16V461.032H619.869V459.144C618.738 459.027 617.821 458.648 617.117 458.008C616.402 457.357 616.04 456.435 616.029 455.24H618.061C618.072 455.859 618.237 456.36 618.557 456.744C618.877 457.128 619.314 457.373 619.869 457.48V454.2C619.218 454.029 618.642 453.827 618.141 453.592C617 453.059 616.429 452.141 616.429 450.84C616.429 449.869 616.738 449.112 617.357 448.568C617.976 448.013 618.813 447.699 619.869 447.624V446.184H620.909V447.64C621.912 447.715 622.749 448.024 623.421 448.568C624.082 449.101 624.418 449.88 624.429 450.904H622.413C622.37 450.061 621.869 449.539 620.909 449.336V452.648C621.634 452.819 622.253 453.011 622.765 453.224C623.309 453.448 623.752 453.789 624.093 454.248C624.434 454.696 624.605 455.261 624.605 455.944C624.605 456.925 624.258 457.688 623.565 458.232C622.861 458.776 621.976 459.085 620.909 459.16ZM619.869 452.344V449.304C619.4 449.368 619.032 449.533 618.765 449.8C618.498 450.067 618.365 450.397 618.365 450.792C618.365 451.165 618.488 451.475 618.733 451.72C618.978 451.965 619.357 452.173 619.869 452.344ZM622.621 456.072C622.621 455.667 622.482 455.347 622.205 455.112C621.928 454.877 621.496 454.675 620.909 454.504V457.544C621.432 457.501 621.848 457.352 622.157 457.096C622.466 456.829 622.621 456.488 622.621 456.072ZM633.328 447.992V449.944L628.928 459H626.88L631.248 449.976H625.168V447.992H633.328ZM642.315 455.272C642.315 456.339 641.953 457.256 641.227 458.024C640.513 458.792 639.553 459.176 638.347 459.176C637.27 459.176 636.347 458.851 635.579 458.2C634.811 457.539 634.406 456.643 634.363 455.512H636.411C636.454 456.077 636.646 456.52 636.987 456.84C637.329 457.16 637.755 457.32 638.267 457.32C638.875 457.32 639.355 457.128 639.707 456.744C640.059 456.349 640.235 455.869 640.235 455.304C640.235 454.76 640.075 454.307 639.755 453.944C639.435 453.581 638.993 453.4 638.427 453.4C637.755 453.4 637.206 453.613 636.779 454.04H634.731L635.723 447.992H641.755V449.848H637.259L636.859 452.264C637.361 451.816 638.017 451.592 638.827 451.592C639.905 451.592 640.753 451.955 641.371 452.68C642.001 453.395 642.315 454.259 642.315 455.272ZM650.798 447.992V449.944L646.398 459H644.35L648.718 449.976H642.638V447.992H650.798ZM660.025 459H657.625L655.209 455.752L654.217 456.808V459H652.233V447.624H654.217V454.248L657.321 450.76H659.897L656.553 454.328L660.025 459ZM665.021 453.08V454.84H660.429V453.08H665.021ZM670.864 459.16V461.032H669.824V459.144C668.693 459.027 667.776 458.648 667.072 458.008C666.357 457.357 665.995 456.435 665.984 455.24H668.016C668.027 455.859 668.192 456.36 668.512 456.744C668.832 457.128 669.269 457.373 669.824 457.48V454.2C669.173 454.029 668.597 453.827 668.096 453.592C666.955 453.059 666.384 452.141 666.384 450.84C666.384 449.869 666.693 449.112 667.312 448.568C667.931 448.013 668.768 447.699 669.824 447.624V446.184H670.864V447.64C671.867 447.715 672.704 448.024 673.376 448.568C674.037 449.101 674.373 449.88 674.384 450.904H672.368C672.325 450.061 671.824 449.539 670.864 449.336V452.648C671.589 452.819 672.208 453.011 672.72 453.224C673.264 453.448 673.707 453.789 674.048 454.248C674.389 454.696 674.56 455.261 674.56 455.944C674.56 456.925 674.213 457.688 673.52 458.232C672.816 458.776 671.931 459.085 670.864 459.16ZM669.824 452.344V449.304C669.355 449.368 668.987 449.533 668.72 449.8C668.453 450.067 668.32 450.397 668.32 450.792C668.32 451.165 668.443 451.475 668.688 451.72C668.933 451.965 669.312 452.173 669.824 452.344ZM672.576 456.072C672.576 455.667 672.437 455.347 672.16 455.112C671.883 454.877 671.451 454.675 670.864 454.504V457.544C671.387 457.501 671.803 457.352 672.112 457.096C672.421 456.829 672.576 456.488 672.576 456.072ZM675.603 451.688C675.603 450.547 675.977 449.613 676.723 448.888C677.47 448.163 678.398 447.8 679.507 447.8C680.745 447.8 681.769 448.28 682.579 449.24C683.39 450.189 683.795 451.629 683.795 453.56C683.795 454.584 683.673 455.469 683.427 456.216C683.193 456.963 682.867 457.549 682.451 457.976C682.046 458.392 681.598 458.696 681.107 458.888C680.617 459.08 680.083 459.176 679.507 459.176C678.483 459.176 677.641 458.888 676.979 458.312C676.318 457.736 675.939 456.963 675.843 455.992H677.923C677.955 456.397 678.131 456.723 678.451 456.968C678.771 457.203 679.177 457.32 679.667 457.32C681.054 457.32 681.779 456.243 681.843 454.088C681.566 454.504 681.193 454.829 680.723 455.064C680.254 455.288 679.742 455.4 679.187 455.4C678.238 455.4 677.401 455.064 676.675 454.392C675.961 453.709 675.603 452.808 675.603 451.688ZM677.683 451.64C677.683 452.237 677.854 452.712 678.195 453.064C678.547 453.405 678.99 453.576 679.523 453.576C680.057 453.576 680.499 453.4 680.851 453.048C681.203 452.696 681.379 452.221 681.379 451.624C681.379 451.027 681.198 450.552 680.835 450.2C680.483 449.837 680.041 449.656 679.507 449.656C678.974 449.656 678.537 449.837 678.195 450.2C677.854 450.552 677.683 451.032 677.683 451.64ZM692.432 447.992V449.944L688.032 459H685.984L690.352 449.976H684.272V447.992H692.432ZM701.143 447.992V449.944L696.743 459H694.695L699.063 449.976H692.983V447.992H701.143ZM710.37 459H707.97L705.554 455.752L704.562 456.808V459H702.578V447.624H704.562V454.248L707.666 450.76H710.242L706.898 454.328L710.37 459Z" fill="#1A202C"/>
</svg>
