<svg width="222" height="57" viewBox="0 0 222 57" fill="none" xmlns="http://www.w3.org/2000/svg">
<rect x="1" y="1" width="220" height="55" rx="27.5" fill="#F4F5F9"/>
<rect x="0.5" y="0.5" width="221" height="56" rx="28" stroke="#1A202C" stroke-opacity="0.3"/>
<path d="M65.1178 23.624V35H63.4218V23.624H65.1178ZM75.2211 30.936C75.2211 32.2267 74.8638 33.256 74.1491 34.024C73.4345 34.792 72.4585 35.176 71.2211 35.176C69.9838 35.176 69.0078 34.792 68.2931 34.024C67.5785 33.256 67.2211 32.2267 67.2211 30.936C67.2211 29.656 67.5838 28.6267 68.3091 27.848C69.0345 27.0693 70.0051 26.68 71.2211 26.68C72.4371 26.68 73.4078 27.0693 74.1331 27.848C74.8585 28.6267 75.2211 29.656 75.2211 30.936ZM69.5091 28.952C69.1145 29.432 68.9171 30.0933 68.9171 30.936C68.9171 31.7787 69.1198 32.44 69.5251 32.92C69.9411 33.4 70.5171 33.64 71.2531 33.64C71.9785 33.64 72.5385 33.4 72.9331 32.92C73.3278 32.44 73.5251 31.7787 73.5251 30.936C73.5251 30.0933 73.3171 29.432 72.9011 28.952C72.4958 28.4613 71.9305 28.216 71.2051 28.216C70.4798 28.216 69.9145 28.4613 69.5091 28.952ZM82.9764 26.84H84.5764V34.504C84.5764 35.6773 84.235 36.5947 83.5524 37.256C82.8804 37.9173 81.931 38.248 80.7044 38.248C79.6164 38.248 78.7257 37.9867 78.0324 37.464C77.3497 36.952 76.9497 36.2427 76.8324 35.336H78.4964C78.5817 35.8267 78.8164 36.2053 79.2004 36.472C79.5844 36.7493 80.0857 36.888 80.7044 36.888C81.4404 36.888 82.0004 36.7013 82.3844 36.328C82.779 35.9653 82.9764 35.432 82.9764 34.728V33.256C82.7524 33.704 82.4057 34.0507 81.9364 34.296C81.467 34.5307 80.9284 34.648 80.3204 34.648C79.2217 34.648 78.3524 34.2907 77.7124 33.576C77.0724 32.8613 76.7524 31.8907 76.7524 30.664C76.7524 29.4587 77.0724 28.4933 77.7124 27.768C78.3524 27.0427 79.2217 26.68 80.3204 26.68C80.939 26.68 81.483 26.8027 81.9524 27.048C82.4217 27.2827 82.763 27.624 82.9764 28.072V26.84ZM82.8964 30.648C82.8964 29.8693 82.699 29.256 82.3044 28.808C81.9097 28.3493 81.371 28.12 80.6884 28.12C80.0057 28.12 79.4617 28.3493 79.0564 28.808C78.651 29.2667 78.4484 29.88 78.4484 30.648C78.4484 31.4267 78.6457 32.0507 79.0404 32.52C79.4457 32.9787 79.995 33.208 80.6884 33.208C81.371 33.208 81.9097 32.9787 82.3044 32.52C82.699 32.0613 82.8964 31.4373 82.8964 30.648ZM87.0441 25.416V23.464H88.8521V25.416H87.0441ZM87.0921 35V26.84H88.7881V35H87.0921ZM98.4305 29.72V35H96.7505V29.896C96.7505 29.3733 96.6065 28.9573 96.3185 28.648C96.0305 28.3387 95.6358 28.184 95.1345 28.184C94.5052 28.184 94.0038 28.4027 93.6305 28.84C93.2678 29.2773 93.0865 29.8747 93.0865 30.632V35H91.3905V26.84H93.0865V28.056C93.3638 27.576 93.6998 27.2293 94.0945 27.016C94.4892 26.792 94.9852 26.68 95.5825 26.68C96.4998 26.68 97.2038 26.9413 97.6945 27.464C98.1852 27.976 98.4305 28.728 98.4305 29.72ZM116.889 26.84L114.089 35H112.393L110.441 29.096L108.489 35H106.793L103.993 26.84H105.785L107.689 32.984L109.625 26.84H111.337L113.289 32.984L115.177 26.84H116.889ZM118.466 25.416V23.464H120.274V25.416H118.466ZM118.514 35V26.84H120.21V35H118.514ZM126.892 33.544V35H125.756C124.86 35 124.231 34.8133 123.868 34.44C123.506 34.056 123.324 33.3893 123.324 32.44V28.312H121.772V26.84H123.324V24.872L125.02 24.424V26.84H126.7V28.312H125.02V32.504C125.02 33.1973 125.372 33.544 126.076 33.544H126.892ZM135.868 29.72V35H134.188V29.896C134.188 29.3733 134.044 28.9573 133.756 28.648C133.468 28.3387 133.073 28.184 132.572 28.184C131.943 28.184 131.441 28.4027 131.068 28.84C130.705 29.2773 130.524 29.8747 130.524 30.632V35H128.828V23.624H130.524V28.12C130.801 27.608 131.132 27.24 131.516 27.016C131.911 26.792 132.412 26.68 133.02 26.68C133.937 26.68 134.641 26.9413 135.132 27.464C135.623 27.976 135.868 28.728 135.868 29.72ZM146.955 29.16H152.155V35H150.523V33.64C149.744 34.7387 148.603 35.288 147.099 35.288C145.499 35.288 144.219 34.7547 143.259 33.688C142.299 32.6213 141.819 31.2187 141.819 29.48C141.819 27.688 142.32 26.2533 143.323 25.176C144.336 24.088 145.675 23.544 147.339 23.544C148.683 23.544 149.787 23.9013 150.651 24.616C151.515 25.32 152.011 26.264 152.139 27.448H150.347C150.261 26.7653 149.931 26.2213 149.355 25.816C148.789 25.4 148.091 25.192 147.259 25.192C146.139 25.192 145.248 25.576 144.587 26.344C143.925 27.1013 143.595 28.1253 143.595 29.416C143.595 30.7173 143.925 31.7467 144.587 32.504C145.248 33.2613 146.149 33.64 147.291 33.64C148.219 33.64 148.96 33.3947 149.515 32.904C150.069 32.4027 150.379 31.704 150.443 30.808H146.955V29.16ZM162.331 30.936C162.331 32.2267 161.973 33.256 161.259 34.024C160.544 34.792 159.568 35.176 158.331 35.176C157.093 35.176 156.117 34.792 155.403 34.024C154.688 33.256 154.331 32.2267 154.331 30.936C154.331 29.656 154.693 28.6267 155.419 27.848C156.144 27.0693 157.115 26.68 158.331 26.68C159.547 26.68 160.517 27.0693 161.243 27.848C161.968 28.6267 162.331 29.656 162.331 30.936ZM156.619 28.952C156.224 29.432 156.027 30.0933 156.027 30.936C156.027 31.7787 156.229 32.44 156.635 32.92C157.051 33.4 157.627 33.64 158.363 33.64C159.088 33.64 159.648 33.4 160.043 32.92C160.437 32.44 160.635 31.7787 160.635 30.936C160.635 30.0933 160.427 29.432 160.011 28.952C159.605 28.4613 159.04 28.216 158.315 28.216C157.589 28.216 157.024 28.4613 156.619 28.952ZM171.862 30.936C171.862 32.2267 171.504 33.256 170.79 34.024C170.075 34.792 169.099 35.176 167.862 35.176C166.624 35.176 165.648 34.792 164.934 34.024C164.219 33.256 163.862 32.2267 163.862 30.936C163.862 29.656 164.224 28.6267 164.95 27.848C165.675 27.0693 166.646 26.68 167.862 26.68C169.078 26.68 170.048 27.0693 170.774 27.848C171.499 28.6267 171.862 29.656 171.862 30.936ZM166.15 28.952C165.755 29.432 165.558 30.0933 165.558 30.936C165.558 31.7787 165.76 32.44 166.166 32.92C166.582 33.4 167.158 33.64 167.894 33.64C168.619 33.64 169.179 33.4 169.574 32.92C169.968 32.44 170.166 31.7787 170.166 30.936C170.166 30.0933 169.958 29.432 169.542 28.952C169.136 28.4613 168.571 28.216 167.846 28.216C167.12 28.216 166.555 28.4613 166.15 28.952ZM179.617 26.84H181.217V34.504C181.217 35.6773 180.876 36.5947 180.193 37.256C179.521 37.9173 178.572 38.248 177.345 38.248C176.257 38.248 175.366 37.9867 174.673 37.464C173.99 36.952 173.59 36.2427 173.473 35.336H175.137C175.222 35.8267 175.457 36.2053 175.841 36.472C176.225 36.7493 176.726 36.888 177.345 36.888C178.081 36.888 178.641 36.7013 179.025 36.328C179.42 35.9653 179.617 35.432 179.617 34.728V33.256C179.393 33.704 179.046 34.0507 178.577 34.296C178.108 34.5307 177.569 34.648 176.961 34.648C175.862 34.648 174.993 34.2907 174.353 33.576C173.713 32.8613 173.393 31.8907 173.393 30.664C173.393 29.4587 173.713 28.4933 174.353 27.768C174.993 27.0427 175.862 26.68 176.961 26.68C177.58 26.68 178.124 26.8027 178.593 27.048C179.062 27.2827 179.404 27.624 179.617 28.072V26.84ZM179.537 30.648C179.537 29.8693 179.34 29.256 178.945 28.808C178.55 28.3493 178.012 28.12 177.329 28.12C176.646 28.12 176.102 28.3493 175.697 28.808C175.292 29.2667 175.089 29.88 175.089 30.648C175.089 31.4267 175.286 32.0507 175.681 32.52C176.086 32.9787 176.636 33.208 177.329 33.208C178.012 33.208 178.55 32.9787 178.945 32.52C179.34 32.0613 179.537 31.4373 179.537 30.648ZM185.493 23.624V35H183.797V23.624H185.493ZM195.132 30.696V31.4H189.18C189.18 32.136 189.393 32.7173 189.82 33.144C190.247 33.56 190.828 33.768 191.564 33.768C192.577 33.768 193.244 33.3787 193.564 32.6H195.052C194.849 33.3787 194.423 34.0027 193.772 34.472C193.132 34.9413 192.353 35.176 191.436 35.176C190.273 35.176 189.34 34.7973 188.636 34.04C187.943 33.272 187.596 32.2533 187.596 30.984C187.596 29.6933 187.953 28.6533 188.668 27.864C189.393 27.0747 190.337 26.68 191.5 26.68C192.599 26.68 193.479 27.048 194.14 27.784C194.801 28.5093 195.132 29.48 195.132 30.696ZM192.972 28.648C192.609 28.2747 192.108 28.088 191.468 28.088C190.828 28.088 190.3 28.2747 189.884 28.648C189.479 29.0213 189.249 29.528 189.196 30.168H193.516C193.516 29.528 193.335 29.0213 192.972 28.648Z" fill="#1A202C"/>
<path d="M31.4324 31.0863L30.7362 33.6852L28.1918 33.7391C27.4313 32.3286 27 30.7149 27 29.0001C27 27.3418 27.4033 25.7781 28.1181 24.4012H28.1187L30.384 24.8165L31.3763 27.0682C31.1686 27.6737 31.0554 28.3237 31.0554 29.0001C31.0555 29.7342 31.1885 30.4375 31.4324 31.0863Z" fill="#FBBB00"/>
<path d="M46.8253 27.1319C46.9401 27.7368 47 28.3615 47 29C47 29.716 46.9247 30.4143 46.7813 31.088C46.2945 33.3803 45.0225 35.3819 43.2605 36.7984L43.2599 36.7978L40.4066 36.6522L40.0028 34.1314C41.172 33.4456 42.0858 32.3726 42.5671 31.088H37.2198V27.1319H42.6451H46.8253Z" fill="#3F7EE8"/>
<path d="M43.2599 36.7978L43.2604 36.7984C41.5467 38.1758 39.3698 39 37 39C33.1918 39 29.8808 36.8715 28.1918 33.739L31.4324 31.0863C32.2769 33.3401 34.4511 34.9445 37 34.9445C38.0956 34.9445 39.122 34.6484 40.0027 34.1313L43.2599 36.7978Z" fill="#28B446"/>
<path d="M43.3829 21.3022L40.1434 23.9544C39.2319 23.3846 38.1544 23.0555 37 23.0555C34.3934 23.0555 32.1785 24.7335 31.3763 27.0681L28.1186 24.4011H28.1181C29.7824 21.1923 33.1351 19 37 19C39.4263 19 41.6511 19.8643 43.3829 21.3022Z" fill="#F14336"/>
</svg>
