<svg width="27" height="27" viewBox="0 0 27 27" fill="none" xmlns="http://www.w3.org/2000/svg">
<path d="M16.3173 10.3697C16.6792 10.7868 17.3108 10.8316 17.7279 10.4696C18.1451 10.1077 18.1898 9.47609 17.8279 9.05895L16.3173 10.3697ZM10.9971 16.9447C10.6352 16.5275 10.0036 16.4828 9.58646 16.8447C9.16932 17.2067 9.12458 17.8383 9.48654 18.2554L10.9971 16.9447ZM14.6572 7.08576C14.6572 6.53347 14.2095 6.08576 13.6572 6.08576C13.1049 6.08576 12.6572 6.53347 12.6572 7.08576H14.6572ZM12.6572 20.2286C12.6572 20.7809 13.1049 21.2286 13.6572 21.2286C14.2094 21.2286 14.6572 20.7809 14.6572 20.2286L12.6572 20.2286ZM24.4858 13.6572C24.4858 19.6376 19.6376 24.4858 13.6572 24.4858V26.4858C20.7422 26.4858 26.4858 20.7422 26.4858 13.6572H24.4858ZM13.6572 24.4858C7.67673 24.4858 2.82861 19.6376 2.82861 13.6572H0.828613C0.828613 20.7422 6.57216 26.4858 13.6572 26.4858V24.4858ZM2.82861 13.6572C2.82861 7.67673 7.67673 2.82861 13.6572 2.82861V0.828613C6.57216 0.828613 0.828613 6.57216 0.828613 13.6572H2.82861ZM13.6572 2.82861C19.6376 2.82861 24.4858 7.67673 24.4858 13.6572H26.4858C26.4858 6.57216 20.7422 0.828613 13.6572 0.828613V2.82861ZM13.6572 12.6572C12.7383 12.6572 11.9516 12.4071 11.4239 12.0552C10.8891 11.6988 10.7143 11.3161 10.7143 11.0286H8.71433C8.71433 12.1929 9.42216 13.1245 10.3145 13.7193C11.2138 14.3189 12.3985 14.6572 13.6572 14.6572V12.6572ZM10.7143 11.0286C10.7143 10.7411 10.8891 10.3585 11.4239 10.002C11.9516 9.65015 12.7383 9.40004 13.6572 9.40004V7.40004C12.3985 7.40004 11.2138 7.73836 10.3145 8.33788C9.42216 8.93275 8.71433 9.86437 8.71433 11.0286H10.7143ZM13.6572 9.40004C14.91 9.40004 15.8739 9.85876 16.3173 10.3697L17.8279 9.05895C16.9077 7.99853 15.3232 7.40004 13.6572 7.40004V9.40004ZM13.6572 14.6572C14.5761 14.6572 15.3628 14.9073 15.8905 15.2591C16.4253 15.6156 16.6001 15.9983 16.6001 16.2858H18.6001C18.6001 15.1215 17.8922 14.1899 16.9999 13.595C16.1006 12.9955 14.9159 12.6572 13.6572 12.6572V14.6572ZM12.6572 7.08576V8.40004H14.6572V7.08576H12.6572ZM12.6572 18.9143L12.6572 20.2286L14.6572 20.2286L14.6572 18.9143L12.6572 18.9143ZM13.6572 17.9143C12.4045 17.9143 11.4405 17.4556 10.9971 16.9447L9.48654 18.2554C10.4067 19.3158 11.9912 19.9143 13.6572 19.9143L13.6572 17.9143ZM16.6001 16.2858C16.6001 16.5732 16.4253 16.9559 15.8905 17.3124C15.3628 17.6642 14.5761 17.9143 13.6572 17.9143V19.9143C14.9159 19.9143 16.1006 19.576 16.9999 18.9765C17.8922 18.3816 18.6001 17.45 18.6001 16.2858H16.6001ZM12.6572 8.40004L12.6572 18.9143L14.6572 18.9143L14.6572 8.40004L12.6572 8.40004Z" fill="#D24944"/>
</svg>
