<svg width="113" height="30" viewBox="0 0 113 30" fill="none" xmlns="http://www.w3.org/2000/svg">
<rect y="23" width="22" height="7" rx="3.5" fill="#D24944"/>
<rect x="7" y="14" width="15" height="7" rx="3.5" fill="#D24944"/>
<circle cx="18.5" cy="7.5" r="3.5" fill="#D24944"/>
<path d="M38.1966 7.92135C41.1461 7.92135 43.2949 8.73596 44.6433 10.3652C46.0197 11.9663 46.7079 14.8455 46.7079 19.0028C46.7079 23.1601 45.9213 26.0393 44.3483 27.6404C42.7753 29.2135 40.0646 30 36.2163 30C34.6724 30 33.1261 29.9039 31.5831 29.7687C29.5439 29.5901 28 27.8561 28 25.8091V0H33.6461V9.05899C35.4438 8.30056 36.9607 7.92135 38.1966 7.92135ZM36.2163 24.9438C38.0983 24.9438 39.3624 24.4944 40.0084 23.5955C40.6545 22.6685 40.9775 21.0253 40.9775 18.6657C40.9775 14.8736 39.7978 12.9775 37.4382 12.9775C36.3146 12.9775 35.2472 13.118 34.236 13.3989L33.6461 13.5253V24.7753C34.9382 24.8876 35.7949 24.9438 36.2163 24.9438Z" fill="#202124"/>
<circle cx="54" cy="6" r="3" fill="#D24944"/>
<rect x="51" y="11" width="6" height="19" fill="#202124"/>
<rect x="62" y="3" width="6" height="27" fill="#202124"/>
<rect x="73" y="3" width="6" height="27" fill="#202124"/>
<circle cx="87" cy="6" r="3" fill="#D24944"/>
<rect x="84" y="11" width="6" height="19" fill="#202124"/>
<path d="M95.3043 12.6336C96.8406 10.8779 99.4058 10 103 10C106.594 10 109.159 10.8779 110.696 12.6336C112.232 14.3639 113 16.8066 113 19.9618C113 26.6539 109.667 30 103 30C96.3333 30 93 26.6539 93 19.9618C93 16.8066 93.7681 14.3639 95.3043 12.6336ZM99.7826 24.2748C100.391 25.1908 101.464 25.6489 103 25.6489C104.536 25.6489 105.594 25.1908 106.174 24.2748C106.783 23.3588 107.087 21.9211 107.087 19.9618C107.087 18.0025 106.783 16.5776 106.174 15.687C105.594 14.7964 104.536 14.3511 103 14.3511C101.464 14.3511 100.391 14.7964 99.7826 15.687C99.2029 16.5776 98.913 18.0025 98.913 19.9618C98.913 21.9211 99.2029 23.3588 99.7826 24.2748Z" fill="#202124"/>
</svg>
