<svg width="438" height="355" viewBox="0 0 438 355" fill="none" xmlns="http://www.w3.org/2000/svg">
<g opacity="0.7" clip-path="url(#clip0_1207_10499)">
<path opacity="0.2" d="M438.003 315.465H0.00292969V315.684H438.003V315.465Z" fill="#5D5F5E"/>
<path opacity="0.2" d="M394.115 329.561H365.102V329.779H394.115V329.561Z" fill="#5D5F5E"/>
<path opacity="0.2" d="M239.344 326.811H228.052V327.029H239.344V326.811Z" fill="#5D5F5E"/>
<path opacity="0.2" d="M306.313 327.738H282.539V327.957H306.313V327.738Z" fill="#5D5F5E"/>
<path opacity="0.2" d="M364.226 321.428H315.074V321.647H364.226V321.428Z" fill="#5D5F5E"/>
<path opacity="0.2" d="M69.1988 331.557H45.9585V331.776H69.1988V331.557Z" fill="#5D5F5E"/>
<path opacity="0.2" d="M97.1431 331.557H76.9951V331.776H97.1431V331.557Z" fill="#5D5F5E"/>
<path opacity="0.2" d="M168.028 326.705H114.759V326.924H168.028V326.705Z" fill="#5D5F5E"/>
<path opacity="0.2" d="M409.143 150.675C411.99 140.8 411.474 130.75 408.276 121.75C410.773 118.178 412.744 114.142 414.023 109.721C419.892 89.393 409.196 68.2243 389.898 60.5991C386.175 33.9675 367.262 10.6977 339.747 2.76602C317.996 -3.50229 295.684 1.2077 278.716 13.613C274.467 9.1744 269.036 5.75135 262.711 3.93038C243.632 -1.56752 223.703 9.42829 218.202 28.4959C217.282 31.6825 216.835 34.8955 216.8 38.0647C197.598 41.9342 181.156 56.0729 175.357 76.1823C170.144 94.2431 174.761 112.812 186.035 126.18C184.581 128.815 183.381 131.643 182.513 134.654C176.268 156.305 188.759 178.909 210.423 185.151C217.562 187.208 224.807 187.217 231.534 185.554C239.497 196.523 251.034 205.033 265.068 209.077C283.14 214.286 301.632 211.047 316.349 201.715C322.936 217.027 328.35 239.999 316.699 262.524C359.045 258.375 389.635 217.78 383.398 180.581C395.478 175.022 405.166 164.455 409.143 150.675Z" fill="#5D5F5E"/>
<path d="M327.903 254.119C327.675 254.119 327.447 254.032 327.281 253.865C327.053 253.638 326.965 253.314 327.053 252.999C333.018 232.233 327.578 212.325 321.972 199.28L319.125 192.67L313.046 196.523C303.874 202.344 293.318 205.417 282.535 205.417C277.217 205.417 271.909 204.664 266.749 203.176C254.459 199.63 243.991 192.285 236.474 181.937L234.048 178.593L230.036 179.591C224.149 181.053 217.956 180.939 212.095 179.25C203.195 176.685 195.828 170.81 191.343 162.703C186.867 154.597 185.815 145.238 188.382 136.334C189.1 133.848 190.108 131.423 191.378 129.129L193.419 125.435L190.695 122.213C180.305 109.896 176.758 93.3142 181.216 77.8623C186.21 60.572 200.296 47.6151 217.982 44.052L222.844 43.0715L222.896 38.1163C222.923 35.4199 223.317 32.7498 224.062 30.1759C227.75 17.508 239.532 8.63953 252.724 8.63953C255.51 8.63953 258.296 9.03349 261.002 9.81265C266.057 11.2747 270.647 14.0499 274.274 17.8406L277.988 21.7277L282.324 18.5585C293.301 10.5393 306.765 6.12695 320.255 6.12695C326.247 6.12695 332.23 6.97615 338.047 8.65704C362.356 15.6607 380.322 36.3829 383.826 61.4474L384.317 64.9843L387.646 66.2975C404.29 72.8722 413.102 90.8104 408.135 108.022C407.075 111.681 405.437 115.113 403.256 118.239L401.452 120.821L402.503 123.798C405.402 131.948 405.656 140.659 403.256 148.976C399.927 160.497 391.754 169.987 380.83 175.012L376.573 176.973L377.344 181.596C380.007 197.468 375.224 214.802 364.222 229.16C355.059 241.119 342.251 249.969 328.148 254.084C328.069 254.11 327.981 254.119 327.903 254.119ZM319.537 190.517C319.624 190.517 319.712 190.526 319.8 190.552C320.045 190.631 320.246 190.806 320.343 191.042L323.593 198.597C329.182 211.58 334.586 231.243 329.173 251.939C342.322 247.746 354.226 239.324 362.837 228.092C373.542 214.119 378.202 197.275 375.627 181.885L374.742 176.606C374.681 176.212 374.882 175.835 375.242 175.669L380.112 173.428C390.58 168.613 398.403 159.525 401.592 148.495C403.887 140.528 403.642 132.194 400.865 124.384L399.656 120.988C399.559 120.725 399.603 120.427 399.761 120.191L401.828 117.232C403.904 114.264 405.464 110.999 406.462 107.532C411.175 91.1956 402.818 74.1679 387.015 67.9258L383.213 66.4288C382.924 66.315 382.714 66.0523 382.67 65.7372L382.101 61.6926C378.693 37.3109 361.217 17.149 337.574 10.3379C331.906 8.70081 326.081 7.87788 320.255 7.87788C307.133 7.87788 294.036 12.1764 283.375 19.968L278.417 23.5924C278.058 23.8551 277.568 23.8113 277.27 23.4874L273.021 19.0488C269.605 15.4769 265.286 12.868 260.529 11.4935C257.98 10.7581 255.361 10.3817 252.733 10.3817C240.311 10.3817 229.221 18.7249 225.779 30.6749C225.078 33.0999 224.71 35.6125 224.684 38.1426L224.622 43.8069C224.613 44.2183 224.324 44.5773 223.921 44.6561L218.359 45.7766C201.312 49.2085 187.743 61.6925 182.933 78.3526C178.641 93.2442 182.049 109.213 192.07 121.084L195.18 124.77C195.416 125.05 195.451 125.444 195.276 125.759L192.937 129.979C191.728 132.159 190.774 134.461 190.09 136.825C187.655 145.273 188.654 154.159 192.902 161.854C197.16 169.55 204.15 175.126 212.603 177.569C218.166 179.171 224.044 179.276 229.633 177.893L234.223 176.755C234.565 176.667 234.933 176.798 235.143 177.087L237.92 180.913C245.199 190.946 255.344 198.063 267.257 201.495C272.259 202.94 277.41 203.666 282.561 203.666C293.012 203.666 303.234 200.681 312.135 195.043L319.081 190.639C319.204 190.569 319.37 190.517 319.537 190.517Z" fill="white"/>
<path d="M266.468 108.67L242.991 105.019L243.359 102.673C243.981 98.6806 244.935 95.5115 246.232 93.1565C247.528 90.8102 249.228 88.7441 251.339 86.9582C253.45 85.181 258.04 82.1782 265.11 77.9672C268.868 75.7698 270.926 73.5374 271.277 71.2787C271.627 69.0112 271.233 67.1465 270.094 65.6845C268.947 64.2224 267.019 63.2769 264.304 62.8567C261.378 62.4015 258.811 62.9968 256.595 64.6252C254.379 66.2623 252.627 69.4489 251.339 74.1852L227.827 67.4879C230.026 58.8033 234.327 52.2111 240.748 47.7112C247.169 43.2026 256.139 41.8544 267.676 43.6491C276.655 45.0498 283.611 48.0526 288.551 52.6488C295.262 58.8821 297.96 66.2185 296.646 74.6492C296.103 78.151 294.605 81.3727 292.161 84.3231C289.717 87.2734 285.144 90.6351 278.442 94.3909C273.765 97.0348 270.734 99.276 269.332 101.097C267.922 102.944 266.967 105.457 266.468 108.67ZM241.212 111.13L266.362 115.043L262.911 137.21L237.761 133.296L241.212 111.13Z" fill="white"/>
<path d="M326.387 143.024L313.352 132.474L314.412 131.17C316.208 128.955 317.916 127.353 319.545 126.381C321.166 125.409 322.944 124.753 324.863 124.411C326.781 124.07 330.653 123.868 336.461 123.807C339.536 123.798 341.586 123.168 342.602 121.907C343.618 120.647 344.038 119.369 343.863 118.073C343.688 116.777 342.838 115.516 341.332 114.291C339.711 112.978 337.933 112.426 335.997 112.636C334.061 112.846 331.862 114.168 329.4 116.611L317.426 104.188C321.849 99.6706 326.816 97.1668 332.335 96.694C337.854 96.2213 343.811 98.5763 350.214 103.759C355.199 107.795 358.379 112.093 359.763 116.655C361.646 122.835 360.691 128.272 356.889 132.956C355.313 134.899 353.254 136.335 350.722 137.272C348.182 138.208 344.196 138.637 338.774 138.559C334.981 138.515 332.335 138.804 330.828 139.425C329.313 140.038 327.832 141.238 326.387 143.024ZM310.102 135.573L324.066 146.876L314.088 159.185L300.125 147.882L310.102 135.573Z" fill="white"/>
<path d="M330.033 67.1919L324.392 59.4878L325.163 58.9275C326.477 57.9645 327.65 57.3342 328.684 57.0365C329.718 56.7389 330.787 56.6338 331.899 56.7214C333.003 56.8177 335.167 57.2641 338.373 58.0696C340.063 58.5073 341.281 58.4635 342.026 57.912C342.77 57.3692 343.182 56.7214 343.278 55.986C343.366 55.2418 343.086 54.4276 342.437 53.5347C341.737 52.5717 340.834 52.0114 339.739 51.8538C338.644 51.6874 337.243 52.0989 335.534 53.0794L330.743 44.5087C333.835 42.6614 336.927 42.0048 340.037 42.5476C343.147 43.0904 346.082 45.244 348.85 49.026C351.005 51.9676 352.135 54.7953 352.231 57.5093C352.371 61.1862 351.057 64.0402 348.28 66.0625C347.133 66.903 345.792 67.3932 344.259 67.5421C342.726 67.6909 340.475 67.3495 337.497 66.5178C335.412 65.9487 333.914 65.7211 332.994 65.8437C332.074 65.9662 331.093 66.4127 330.033 67.1919ZM322.149 60.7222L328.194 68.9691L320.914 74.2919L314.87 66.045L322.149 60.7222Z" fill="white"/>
<path opacity="0.2" d="M112.423 176.423C105.179 176.423 97.8903 174.445 91.4341 170.593C82.5427 165.296 76.2618 157.093 74.1331 148.014C66.9149 147.498 60.2661 143.952 55.8335 138.244C52.6186 134.112 50.7877 129.192 50.5162 123.974C48.6153 122.678 46.9333 121.103 45.5142 119.29C38.6026 110.405 39.4698 97.9292 47.4852 90.1025C44.1477 75.8675 49.4124 60.9409 60.9669 51.9674C70.0335 44.9287 81.5792 42.4511 92.7394 45.1388C94.0359 42.1797 96.0594 39.5884 98.6174 37.6011C102.726 34.4056 107.842 33.0049 113.01 33.6527C118.178 34.3006 122.786 36.9182 125.975 41.0329C126.938 42.276 127.744 43.6242 128.393 45.06C138.931 43.3353 149.487 47.45 156.048 55.8982C161.917 63.4447 163.687 73.3374 160.813 82.451C161.961 83.4315 163.003 84.5171 163.914 85.6902C171.369 95.2765 169.635 109.144 160.034 116.594C157.108 118.87 153.639 120.367 149.977 120.954C148.068 128.098 143.977 134.27 138.116 138.813C130.723 144.556 121.253 146.955 112.02 145.449C111.924 153.95 113.904 165.48 123.426 173.727C123.618 173.893 123.697 174.147 123.645 174.392C123.592 174.637 123.408 174.839 123.163 174.909C119.676 175.915 116.05 176.414 112.423 176.423ZM83.8568 45.454C75.9465 45.454 68.2289 48.0628 61.7991 53.053C50.5688 61.7813 45.5055 76.349 48.9044 90.1638C48.9657 90.4002 48.8868 90.6541 48.7116 90.8292C40.9503 98.148 40.0392 110.019 46.5917 118.45C47.9845 120.245 49.6577 121.786 51.5499 123.029C51.7338 123.151 51.8477 123.353 51.8565 123.58C52.0492 128.632 53.8012 133.412 56.9022 137.413C61.2034 142.945 67.6945 146.325 74.7113 146.684C75.0179 146.701 75.2807 146.92 75.3508 147.226C77.2867 156.13 83.4012 164.219 92.1349 169.419C101.14 174.786 111.801 176.397 121.595 173.919C112.195 165.13 110.443 153.206 110.671 144.618C110.68 144.416 110.767 144.224 110.925 144.101C111.083 143.978 111.284 143.926 111.486 143.961C120.587 145.668 129.987 143.401 137.284 137.736C143.013 133.28 146.99 127.213 148.768 120.175C148.838 119.903 149.066 119.702 149.338 119.658C152.921 119.168 156.328 117.732 159.193 115.508C168.189 108.522 169.819 95.5216 162.828 86.5306C161.882 85.3138 160.787 84.1932 159.578 83.2039C159.359 83.02 159.272 82.7224 159.359 82.4598C162.285 73.6614 160.638 64.0488 154.953 56.7387C148.593 48.5618 138.3 44.6398 128.086 46.5045C127.762 46.5658 127.447 46.3907 127.324 46.093C126.702 44.5785 125.878 43.1602 124.88 41.8733C121.91 38.0563 117.627 35.6138 112.826 35.0184C108.026 34.4144 103.269 35.7188 99.4495 38.6866C96.9267 40.6477 94.9557 43.2478 93.7643 46.2069C93.6329 46.5308 93.2825 46.6971 92.9584 46.6183C89.9362 45.8392 86.879 45.454 83.8568 45.454Z" fill="#5D5F5E"/>
<path opacity="0.2" d="M88.1147 103.217L76.0172 106.063L75.7281 104.854C75.2463 102.797 75.0798 101.072 75.2463 99.6805C75.4127 98.2885 75.8332 96.9491 76.5077 95.6709C77.1822 94.3927 78.8204 92.0377 81.4133 88.6059C82.8062 86.8025 83.358 85.3142 83.0865 84.1498C82.8149 82.9854 82.2543 82.1538 81.4133 81.6723C80.5724 81.1907 79.4511 81.112 78.0495 81.4359C76.5428 81.7948 75.4127 82.5827 74.6594 83.8084C73.906 85.034 73.687 86.925 73.9936 89.4726L61.2828 90.8559C60.6346 86.2159 61.423 82.1713 63.6481 78.7307C65.8731 75.2814 69.9552 72.8651 75.9033 71.4644C80.5286 70.3788 84.4968 70.4663 87.7906 71.727C92.267 73.4254 95.0176 76.4545 96.0425 80.7968C96.4718 82.6002 96.3754 84.4562 95.7797 86.3647C95.1753 88.2732 93.6248 90.8033 91.1106 93.9462C89.3674 96.1524 88.3337 97.8333 88.0184 98.9889C87.6942 100.153 87.7293 101.563 88.1147 103.217ZM76.3588 109.372L89.3148 106.325L92.0042 117.75L79.0481 120.797L76.3588 109.372Z" fill="#5D5F5E"/>
<path opacity="0.2" d="M118.914 77.6794L110.513 75.1318L110.767 74.2914C111.205 72.8644 111.714 71.7525 112.309 70.9646C112.905 70.168 113.632 69.5026 114.499 68.9598C115.366 68.417 117.197 67.5591 120.001 66.386C121.49 65.7731 122.357 65.064 122.602 64.2586C122.848 63.4532 122.804 62.744 122.462 62.1487C122.12 61.5534 121.463 61.1069 120.491 60.8093C119.449 60.4941 118.476 60.5729 117.583 61.0544C116.689 61.5359 115.883 62.6127 115.165 64.2761L106.913 60.6079C108.166 57.5438 110.084 55.3551 112.66 54.0419C115.244 52.7288 118.59 52.6937 122.716 53.9456C125.931 54.9174 128.314 56.3794 129.882 58.323C132.01 60.9493 132.615 63.7683 131.704 66.7887C131.327 68.0406 130.609 69.1437 129.566 70.0979C128.524 71.0522 126.676 72.0415 124.03 73.0745C122.182 73.8011 120.955 74.4577 120.351 75.053C119.746 75.6571 119.265 76.5326 118.914 77.6794ZM109.559 77.268L118.555 79.9994L116.146 87.9311L107.15 85.1996L109.559 77.268Z" fill="#5D5F5E"/>
<path opacity="0.2" d="M219.001 355C312.805 355 388.849 350.563 388.849 345.09C388.849 339.617 312.805 335.18 219.001 335.18C125.197 335.18 49.1533 339.617 49.1533 345.09C49.1533 350.563 125.197 355 219.001 355Z" fill="#5D5F5E"/>
<path d="M138.069 197.312L137.263 196.971C137.99 195.264 138.402 193.837 138.533 192.628L139.401 192.725C139.269 194.02 138.831 195.518 138.069 197.312ZM137.728 187.288C136.028 183.559 132.866 181.204 128.591 180.486L128.74 179.619C133.321 180.39 136.703 182.92 138.525 186.929L137.728 187.288Z" fill="#D24944"/>
<path d="M133.137 206.119L124.517 210.041L124.123 209.183C123.457 207.721 123.081 206.452 122.993 205.384C122.905 204.316 123.028 203.256 123.335 202.206C123.65 201.155 124.517 199.15 125.954 196.2C126.725 194.642 126.918 193.451 126.541 192.619C126.164 191.788 125.621 191.254 124.92 191.017C124.219 190.781 123.37 190.886 122.371 191.341C121.294 191.831 120.575 192.593 120.19 193.617C119.813 194.65 119.927 196.095 120.532 197.951L111.255 200.866C110.081 197.496 110.072 194.362 111.228 191.455C112.376 188.548 115.074 186.132 119.305 184.206C122.599 182.709 125.577 182.184 128.232 182.639C131.832 183.243 134.337 185.099 135.748 188.198C136.335 189.485 136.545 190.886 136.378 192.401C136.212 193.915 135.424 196.034 134.013 198.756C133.041 200.665 132.515 202.066 132.445 202.985C132.366 203.895 132.603 204.937 133.137 206.119ZM125.271 212.466L134.504 208.264L138.209 216.397L128.976 220.599L125.271 212.466Z" fill="#D24944"/>
<path d="M111.816 225.581L107.427 231.526L106.832 231.088C105.815 230.344 105.08 229.626 104.615 228.926C104.151 228.234 103.827 227.464 103.643 226.623C103.459 225.783 103.293 224.084 103.144 221.537C103.074 220.18 102.758 219.296 102.18 218.875C101.602 218.455 101.032 218.298 100.463 218.394C99.8937 218.499 99.3593 218.893 98.8512 219.584C98.3081 220.329 98.0979 221.117 98.2293 221.966C98.3607 222.815 98.9914 223.752 100.113 224.785L94.883 230.309C92.7981 228.453 91.598 226.317 91.2826 223.901C90.9585 221.484 91.8783 218.814 94.0332 215.89C95.7064 213.614 97.5372 212.126 99.517 211.425C102.198 210.471 104.615 210.786 106.753 212.362C107.638 213.019 108.312 213.894 108.776 214.988C109.241 216.083 109.512 217.834 109.582 220.215C109.644 221.887 109.819 223.043 110.125 223.69C110.441 224.365 111.001 224.986 111.816 225.581ZM108.864 232.9L113.559 226.527L119.183 230.668L114.488 237.041L108.864 232.9Z" fill="#D24944"/>
<path d="M205.063 341.938C203.644 341.938 202.268 341.168 201.568 339.82C198.046 333.026 193.622 325.051 185.668 316.419C184.74 315.412 184.398 313.985 184.783 312.672C187.736 302.42 192.378 288.404 192.422 288.264C193.105 286.206 195.33 285.086 197.389 285.769C199.448 286.451 200.569 288.675 199.886 290.732C199.842 290.864 195.847 302.936 192.948 312.759C200.262 321.05 204.774 328.92 208.558 336.213C209.557 338.139 208.803 340.511 206.876 341.501C206.289 341.798 205.667 341.938 205.063 341.938Z" fill="#D24944"/>
<path d="M211.606 345.089H181.13L197.283 335.932L210.818 336.457L211.606 345.089Z" fill="#202124"/>
<path d="M208.688 308.219C222.56 303.886 230.892 291.058 227.299 279.566C223.705 268.075 209.546 262.272 195.674 266.604C181.802 270.937 173.47 283.765 177.063 295.256C180.657 306.748 194.816 312.551 208.688 308.219Z" fill="#202124"/>
<path d="M132.845 273.074C131.303 273.074 129.84 272.163 129.209 270.649C128.377 268.644 129.332 266.35 131.338 265.518C133.624 264.573 133.94 262.244 133.94 262.218C134.106 260.467 135.42 259.031 137.155 258.716C138.092 258.55 138.994 258.278 140.045 257.981C145.372 256.422 151.959 254.496 172.729 260.309C193.21 248.858 193.446 227.392 193.446 226.464C193.446 224.302 195.198 222.533 197.362 222.533C197.362 222.533 197.371 222.533 197.38 222.533C199.535 222.533 201.295 224.267 201.304 226.429C201.313 227.567 201.182 254.514 174.989 268.013C174.096 268.477 173.062 268.574 172.098 268.294C152.31 262.577 146.729 264.205 142.253 265.518C141.859 265.632 141.456 265.755 141.044 265.869C140.072 268.364 138.057 271.244 134.351 272.776C133.861 272.977 133.353 273.074 132.845 273.074Z" fill="#202124"/>
<path d="M178.774 244.98C171.319 215.372 151.46 138.997 215.102 134.33C272.199 130.146 287.871 206.092 291.673 232.408C293.889 247.746 294.643 261.649 294.765 272.522C294.932 286.538 285.077 298.628 271.323 301.421C240.217 307.733 210.774 308.635 190.95 300.817C185.589 298.698 182.348 293.244 182.865 287.51C183.636 278.992 183.653 264.363 178.774 244.98Z" fill="#D24944"/>
<path opacity="0.1" d="M291.672 232.4C288.081 207.606 273.96 138.69 224.518 134.383C218.763 133.884 213.087 136.711 210.441 141.842C208.233 146.114 208.304 151.288 211.606 156.409C222.504 173.297 248.494 231.664 244.57 263.47C242.783 277.941 233.699 289.497 241.6 305.763C251.14 304.975 261.144 303.496 271.332 301.421C285.085 298.637 294.94 286.547 294.774 272.522C294.642 261.649 293.898 247.738 291.672 232.4Z" fill="#202124"/>
<path d="M283.157 272.907C282.938 272.907 282.763 272.732 282.763 272.521C282.606 258.996 281.563 245.513 279.671 232.46C270.21 167.107 244.736 134.05 205.999 136.904C205.789 136.93 205.596 136.755 205.579 136.545C205.561 136.326 205.728 136.142 205.938 136.124C245.139 133.235 270.911 166.521 280.442 232.355C282.334 245.443 283.376 258.961 283.543 272.521C283.552 272.732 283.376 272.907 283.157 272.907Z" fill="#202124"/>
<path d="M282.554 310.316C296.426 305.984 304.758 293.156 301.165 281.664C297.571 270.173 283.413 264.369 269.541 268.702C255.668 273.035 247.336 285.863 250.929 297.354C254.523 308.846 268.682 314.649 282.554 310.316Z" fill="#202124"/>
<path d="M284.963 341.938C283.544 341.938 282.169 341.168 281.468 339.82C277.946 333.026 273.523 325.051 265.569 316.419C264.64 315.412 264.298 313.985 264.684 312.672C267.636 302.42 272.279 288.404 272.323 288.264C273.006 286.206 275.222 285.086 277.289 285.769C279.348 286.451 280.469 288.675 279.786 290.732C279.742 290.864 275.748 302.936 272.848 312.759C280.163 321.05 284.674 328.92 288.458 336.213C289.457 338.139 288.704 340.511 286.777 341.501C286.181 341.798 285.568 341.938 284.963 341.938Z" fill="#D24944"/>
<path d="M276.712 222.236C275.301 222.236 273.935 221.474 273.225 220.135C272.218 218.217 272.954 215.845 274.872 214.838C275.625 214.435 292.734 205.094 297.543 182.647C286.137 177.876 265.639 167.117 261.154 161.706C260.716 161.181 260.427 160.551 260.313 159.885C260.208 159.299 259.472 154.65 261.189 150.255L259.122 146.263C258.123 144.337 258.876 141.964 260.803 140.966C262.731 139.968 265.105 140.721 266.103 142.647L269.082 148.39C269.721 149.616 269.66 151.096 268.933 152.269C267.995 153.783 267.873 155.998 267.952 157.443C272.997 162.004 293.391 172.798 303.368 176.501C305.12 177.149 306.171 178.944 305.882 180.782C301.441 209.471 279.48 221.29 278.542 221.78C277.947 222.087 277.325 222.236 276.712 222.236Z" fill="#202124"/>
<path d="M264.175 161.164C263.807 161.164 263.43 161.059 263.097 160.84C262.186 160.244 261.932 159.028 262.528 158.126C262.659 157.916 265.909 153.022 270.85 151.7C271.893 151.42 272.979 152.041 273.259 153.092C273.539 154.143 272.917 155.219 271.866 155.499C268.415 156.427 265.839 160.244 265.813 160.28C265.445 160.849 264.814 161.164 264.175 161.164Z" fill="#202124"/>
<path d="M291.507 345.089H261.031L277.184 335.932L290.718 336.457L291.507 345.089Z" fill="#202124"/>
<path d="M227.689 227.789C239.217 226.769 247.817 217.536 246.898 207.167C245.979 196.798 235.89 189.219 224.362 190.239C212.835 191.259 204.235 200.492 205.154 210.861C206.072 221.23 216.162 228.809 227.689 227.789Z" fill="white"/>
<path d="M223.771 220.936C226.828 220.066 228.021 214.852 226.435 209.291C224.85 203.729 221.086 199.927 218.03 200.797C214.973 201.667 213.78 206.881 215.365 212.443C216.951 218.004 220.714 221.806 223.771 220.936Z" fill="#202124"/>
<path d="M202.182 212.562C215.41 210.864 241.611 203.396 245.929 200.384C242.522 190.439 226.693 181.93 212.528 186.718C199.755 191.043 202.182 212.562 202.182 212.562Z" fill="#202124"/>
<path d="M204.749 218.954C221.165 215.837 242.513 210.602 248.619 207.24C248.242 217.947 245.133 228.794 228.366 232.454C214.674 235.456 204.749 218.954 204.749 218.954Z" fill="#202124"/>
<path d="M191.222 229.242C197.161 225.315 197.944 216.041 192.971 208.529C187.997 201.017 179.151 198.11 173.211 202.037C167.272 205.965 166.489 215.238 171.462 222.751C176.436 230.263 185.282 233.17 191.222 229.242Z" fill="white"/>
<path d="M182.503 215.907C183.502 220.599 182.643 224.512 180.585 224.644C178.526 224.784 176.047 221.089 175.057 216.397C174.059 211.704 174.917 207.791 176.976 207.66C179.025 207.528 181.505 211.214 182.503 215.907Z" fill="#202124"/>
<path d="M166.22 214.111C175.094 215.162 192.719 213.989 195.645 212.387C193.481 203.895 182.987 194.291 173.447 195.516C164.845 196.637 166.22 214.111 166.22 214.111Z" fill="#202124"/>
<path d="M167.865 219.635C178.894 220.134 193.243 219.854 197.369 218.305C196.992 226.718 194.785 234.737 183.519 234.606C174.313 234.501 167.865 219.635 167.865 219.635Z" fill="#202124"/>
<path d="M231.342 181.429C214.794 181.429 203.801 173.261 203.257 172.85C201.532 171.537 201.19 169.077 202.504 167.343C203.809 165.619 206.271 165.277 207.997 166.582C208.189 166.722 221.25 176.247 239.392 172.806C241.53 172.403 243.58 173.804 243.983 175.932C244.386 178.059 242.984 180.116 240.855 180.519C237.518 181.158 234.338 181.429 231.342 181.429Z" fill="#202124"/>
<path d="M161.078 174.663C160.64 174.663 160.185 174.593 159.747 174.435C157.706 173.7 156.646 171.45 157.382 169.41C159.467 163.614 162.918 159.85 167.648 158.23C176.224 155.28 185.457 161.014 185.843 161.259C187.674 162.415 188.226 164.84 187.069 166.679C185.913 168.508 183.495 169.06 181.656 167.904C179.869 166.792 174.323 164.218 170.18 165.663C167.797 166.495 166.028 168.587 164.775 172.063C164.197 173.665 162.69 174.663 161.078 174.663Z" fill="#202124"/>
<path d="M192.045 240.917C191.94 240.917 191.826 240.9 191.721 240.874C191.099 240.69 190.74 240.059 190.915 239.438C190.941 239.333 191.686 236.785 194.91 235.122C199.421 232.802 206.289 233.283 215.329 236.549C215.942 236.768 216.258 237.451 216.039 238.055C215.82 238.667 215.145 238.983 214.532 238.764C204.169 235.008 198.781 235.822 196.092 237.162C193.744 238.335 193.21 240.007 193.184 240.077C193.026 240.585 192.553 240.917 192.045 240.917Z" fill="#202124"/>
<path d="M154.946 236.602C132.082 238.65 115.71 248.114 115.71 248.114C122.481 246.836 146.685 276.768 152.905 299.845C164.381 295.59 177.766 292.692 192.045 290.434C183.398 266.647 167.587 239.692 154.946 236.602Z" fill="#D24944"/>
<path opacity="0.6" d="M154.946 236.602C132.082 238.65 115.71 248.114 115.71 248.114C122.481 246.836 146.685 276.768 152.905 299.845C164.381 295.59 177.766 292.692 192.045 290.434C183.398 266.647 167.587 239.692 154.946 236.602Z" fill="white"/>
<path d="M154.944 236.602C139.982 234.913 115.69 247.432 115.69 247.432C111.389 250.172 112.554 255.32 114.902 257.491C117.153 254.26 142.259 245.856 151.703 244.726C147.007 240.384 151.37 237.232 154.944 236.602Z" fill="#D24944"/>
<path opacity="0.2" d="M154.944 236.602C139.982 234.913 115.69 247.432 115.69 247.432C111.389 250.172 112.554 255.32 114.902 257.491C117.153 254.26 142.259 245.856 151.703 244.726C147.007 240.384 151.37 237.232 154.944 236.602Z" fill="white"/>
<path d="M132.854 273.074C131.566 273.074 130.314 272.443 129.56 271.288C126.713 266.928 128.491 260.265 128.877 258.979C129.499 256.904 131.689 255.722 133.765 256.343C135.841 256.965 137.024 259.145 136.411 261.22C135.771 263.417 135.64 266.227 136.148 266.998C137.33 268.81 136.822 271.244 135 272.434C134.334 272.872 133.59 273.074 132.854 273.074Z" fill="#202124"/>
</g>
<defs>
<clipPath id="clip0_1207_10499">
<rect width="438" height="355" fill="white"/>
</clipPath>
</defs>
</svg>
