<svg width="20" height="16" viewBox="0 0 20 16" fill="none" xmlns="http://www.w3.org/2000/svg">
<path d="M18 16H2C0.89543 16 0 15.1046 0 14V2C0 0.89543 0.89543 0 2 0H18C19.1046 0 20 0.89543 20 2V14C20 15.1046 19.1046 16 18 16ZM2 2V14H18V2H2ZM13.5 12C12.1193 12 11 10.8807 11 9.5C11 8.11929 12.1193 7 13.5 7C14.8807 7 16 8.11929 16 9.5C16 10.163 15.7366 10.7989 15.2678 11.2678C14.7989 11.7366 14.163 12 13.5 12ZM9.5 12C8.11929 12 7 10.8807 7 9.5C7 8.11929 8.11929 7 9.5 7C10.0428 7.00043 10.5702 7.18045 11 7.512C10.3713 7.97913 10.0006 8.71622 10.0006 9.4995C10.0006 10.2828 10.3713 11.0199 11 11.487C10.5703 11.8189 10.0429 11.9993 9.5 12Z" fill="#D24944"/>
</svg>
