<svg width="34" height="34" viewBox="0 0 34 34" fill="none" xmlns="http://www.w3.org/2000/svg">
<path d="M11.2822 31.2188L11.8158 27.8549L10.6271 27.8275H4.95117L8.89568 3.00479C8.90742 2.92894 8.94624 2.85981 9.00504 2.81C9.06385 2.76018 9.13874 2.733 9.21606 2.7334H18.7865C21.9638 2.7334 24.1564 3.38959 25.3012 4.68475C25.8379 5.29233 26.1797 5.92726 26.345 6.62597C26.5184 7.35912 26.5215 8.23505 26.3521 9.30338L26.3399 9.38135V10.0659L26.8765 10.3677C27.2863 10.5737 27.6545 10.8523 27.9632 11.1899C28.4223 11.7094 28.7192 12.3696 28.8447 13.1524C28.9743 13.9575 28.9314 14.9154 28.7192 15.9999C28.4743 17.2475 28.0785 18.3341 27.5438 19.2232C27.0721 20.0196 26.4379 20.7095 25.6818 21.2484C24.9716 21.7487 24.1278 22.1284 23.1739 22.3714C22.2495 22.6104 21.1955 22.7309 20.0395 22.7309H19.2946C18.762 22.7309 18.2448 22.9213 17.8387 23.2626C17.4332 23.6075 17.1642 24.084 17.0796 24.6073L17.0234 24.9101L16.0807 30.8391L16.0378 31.0568C16.0266 31.1257 16.0072 31.1601 15.9787 31.1834C15.951 31.2059 15.9164 31.2184 15.8807 31.2188H11.2822Z" fill="#253B80"/>
<path d="M26.0644 8.93776C25.6614 8.82206 25.2515 8.73176 24.837 8.66739C24.018 8.54247 23.1903 8.48254 22.3617 8.48815H14.8604C14.575 8.48794 14.2988 8.58909 14.0819 8.77332C13.8651 8.95756 13.7217 9.21272 13.6779 9.49269L12.0821 19.5239L12.0362 19.8165C12.0859 19.4972 12.2492 19.206 12.4964 18.9958C12.7436 18.7855 13.0585 18.67 13.3841 18.6702H16.1919C21.7067 18.6702 26.0247 16.4475 27.2868 10.0172C27.3245 9.82686 27.3562 9.64155 27.3847 9.46028C27.0517 9.28695 26.7046 9.14163 26.3471 9.02586C26.2533 8.995 26.1591 8.96563 26.0644 8.93776Z" fill="#222D65"/>
<path d="M13.6779 9.49306C13.7214 9.21301 13.8646 8.95773 14.0816 8.77358C14.2986 8.58944 14.5749 8.48866 14.8604 8.48954H22.3617C23.2504 8.48954 24.0799 8.54726 24.837 8.66877C25.3493 8.74868 25.8545 8.8682 26.3481 9.02623C26.7205 9.14876 27.0664 9.29357 27.3857 9.46065C27.7612 7.084 27.3827 5.46581 26.0879 4.00052C24.6605 2.38739 22.0842 1.69678 18.7876 1.69678H9.21713C8.54373 1.69678 7.9693 2.18284 7.86522 2.84409L3.87889 27.922C3.86032 28.0384 3.86738 28.1575 3.89959 28.2709C3.9318 28.3844 3.9884 28.4896 4.06548 28.5793C4.14256 28.669 4.2383 28.741 4.34611 28.7905C4.45393 28.8399 4.57126 28.8656 4.69003 28.8658H10.5986L12.0822 19.5242L13.6779 9.49306Z" fill="#253B80"/>
<path d="M27.3847 9.46045C27.3561 9.64171 27.3235 9.82702 27.2867 10.0174C26.0246 16.4486 21.7067 18.6704 16.1919 18.6704H13.384C12.7096 18.6704 12.1413 19.1564 12.0362 19.8167L10.5986 28.8656L10.1915 31.4306C10.1753 31.5323 10.1815 31.6364 10.2096 31.7355C10.2378 31.8346 10.2873 31.9265 10.3547 32.0049C10.4221 32.0832 10.5058 32.1461 10.6 32.1893C10.6943 32.2325 10.7968 32.2548 10.9006 32.2549H15.8807C16.4705 32.2549 16.9714 31.8296 17.0643 31.2524L17.1133 31.0012L18.0509 25.0955L18.1111 24.7715C18.203 24.1923 18.7049 23.767 19.2947 23.767H20.0395C24.8645 23.767 28.6417 21.8227 29.7457 16.1965C30.2069 13.8462 29.9681 11.8837 28.7478 10.5035C28.3611 10.0765 27.8991 9.72305 27.3847 9.46045Z" fill="#179BD7"/>
</svg>
