<svg width="55" height="56" viewBox="0 0 55 56" fill="none" xmlns="http://www.w3.org/2000/svg">
<rect y="0.5" width="55" height="55" rx="12" fill="#F4F5F9"/>
<g clip-path="url(#clip0_146_1134)">
<path d="M39.8277 28.8794L32.9303 21.9922L22.6372 32.5871L29.3914 39.3421L29.3922 39.3413C30.7292 40.6752 32.5741 41.5004 34.6111 41.5004C38.6913 41.5004 42 38.1918 42 34.1115C42 32.0675 41.1693 30.2172 39.8277 28.8794Z" fill="#BB1A34"/>
<path d="M26.383 15.4546C25.067 14.2443 23.317 13.5 21.3889 13.5C17.3079 13.5 14 16.8079 14 20.8889C14 22.817 14.7451 24.5678 15.9553 25.883L15.9444 25.8939L22.6372 32.5867L32.9303 21.9918L26.383 15.4546Z" fill="#FDCB58"/>
</g>
<defs>
<clipPath id="clip0_146_1134">
<rect width="28" height="28" fill="white" transform="translate(14 13.5)"/>
</clipPath>
</defs>
</svg>
