<svg width="18" height="18" viewBox="0 0 18 18" fill="none" xmlns="http://www.w3.org/2000/svg">
<path d="M15.6667 2.33268V12.3327H5.66669V2.33268H15.6667ZM15.6667 0.666016H5.66669C4.75002 0.666016 4.00002 1.41602 4.00002 2.33268V12.3327C4.00002 13.2493 4.75002 13.9993 5.66669 13.9993H15.6667C16.5834 13.9993 17.3334 13.2493 17.3334 12.3327V2.33268C17.3334 1.41602 16.5834 0.666016 15.6667 0.666016ZM8.58335 8.72435L9.99169 10.6077L12.0584 8.02435L14.8334 11.4993H6.50002L8.58335 8.72435ZM0.666687 3.99935V15.666C0.666687 16.5827 1.41669 17.3327 2.33335 17.3327H14V15.666H2.33335V3.99935H0.666687Z" fill="#1A202C"/>
</svg>
