<svg width="19" height="20" viewBox="0 0 19 20" fill="none" xmlns="http://www.w3.org/2000/svg">
<path d="M12.7328 1.56738V3.62694C15.1999 4.90485 16.893 7.48136 16.893 10.4466C16.893 14.6815 13.4448 18.1265 9.20606 18.1265C6.16773 18.1265 3.53506 16.3565 2.2891 13.7924L5.44747 11.7948L10.4769 13.3168L14.5956 10.1034L15.3076 11.0049L15.8788 7.89079L12.7287 7.72536L13.4407 8.63107L10.0919 11.2407L5.17013 9.7477L1.67646 11.9603L0 13.019C0.173856 13.6393 0.409802 14.2349 0.699561 14.7973C2.28496 17.8825 5.50542 20 9.2102 20C14.4838 20 18.7723 15.7154 18.7723 10.4466C18.7681 6.42264 16.2638 2.9735 12.7328 1.56738Z" fill="#D24944"/>
<path d="M5.20321 8.96173L7.45505 9.60689V2.88232H4.07315V9.53658L5.05419 8.91624L5.20321 8.96173Z" fill="#1A202C"/>
<path d="M11.9712 8.8048V0H8.33678V9.91315L9.93045 10.3929L11.9712 8.8048Z" fill="#1A202C"/>
<path d="M3.19149 5.5791H0V12.1176L3.19149 10.0952V5.5791Z" fill="#1A202C"/>
</svg>
