<svg width="31" height="16" viewBox="0 0 31 16" fill="none" xmlns="http://www.w3.org/2000/svg">
<path d="M31 15.5C31 11.3891 29.367 7.44666 26.4602 4.53985C23.5533 1.63303 19.6109 3.10361e-07 15.5 0C11.3891 -3.10361e-07 7.44666 1.63303 4.53985 4.53984C1.63303 7.44666 6.20722e-07 11.3891 0 15.5H4.67388C4.67388 12.6287 5.81449 9.87507 7.84478 7.84478C9.87507 5.81449 12.6287 4.67388 15.5 4.67388C18.3713 4.67388 21.1249 5.81449 23.1552 7.84478C25.1855 9.87507 26.3261 12.6287 26.3261 15.5H31Z" fill="#D24944" fill-opacity="0.2"/>
<path d="M7.77691 2.06104C5.39018 3.43265 3.41179 5.41514 2.04513 7.80472C0.678463 10.1943 -0.0271592 12.9047 0.000799702 15.6574L4.67444 15.6099C4.65491 13.6873 5.14776 11.7942 6.10232 10.1251C7.05688 8.45612 8.4387 7.07142 10.1057 6.11341L7.77691 2.06104Z" fill="#D24944"/>
</svg>
