<svg width="20" height="21" viewBox="0 0 20 21" fill="none" xmlns="http://www.w3.org/2000/svg">
<path d="M15.5001 20.9991C14.418 21.0116 13.3925 20.5172 12.7283 19.6628C12.0642 18.8085 11.838 17.6926 12.1171 16.6471L5.85709 13.0691C4.77538 14.0601 3.18977 14.2699 1.88758 13.5942C0.585383 12.9185 -0.156035 11.5013 0.0314588 10.0463C0.218952 8.59128 1.29542 7.40834 2.72637 7.08485C4.15732 6.76136 5.63795 7.36622 6.43309 8.59911L12.1161 5.3501C12.0426 5.07229 12.0036 4.78646 12.0001 4.4991C11.9858 2.82582 13.1479 1.37225 14.7833 1.01793C16.4187 0.663607 18.0782 1.50585 18.7577 3.03502C19.4372 4.56419 18.9501 6.36033 17.5911 7.33661C16.232 8.31289 14.3744 8.20119 13.1421 7.06911L6.99109 10.5841C6.985 10.8434 6.94876 11.1012 6.88309 11.3521L13.1421 14.9291C14.2944 13.8717 16.0089 13.7084 17.34 14.5294C18.6711 15.3504 19.2947 16.9558 18.8669 18.4601C18.4391 19.9644 17.064 21.0014 15.5001 20.9991ZM15.5001 15.9991C14.6717 15.9991 14.0001 16.6707 14.0001 17.4991C14.0001 18.3275 14.6717 18.9991 15.5001 18.9991C16.3285 18.9991 17.0001 18.3275 17.0001 17.4991C17.0001 16.6707 16.3285 15.9991 15.5001 15.9991ZM3.50009 8.99911C2.67166 8.99911 2.00009 9.67068 2.00009 10.4991C2.00009 11.3275 2.67166 11.9991 3.50009 11.9991C4.32852 11.9991 5.00009 11.3275 5.00009 10.4991C5.00009 9.67068 4.32852 8.99911 3.50009 8.99911ZM15.5001 2.9991C14.6717 2.9991 14.0001 3.67068 14.0001 4.4991C14.0001 5.32753 14.6717 5.9991 15.5001 5.9991C16.3285 5.9991 17.0001 5.32753 17.0001 4.4991C17.0001 3.67068 16.3285 2.9991 15.5001 2.9991Z" fill="#5D5F5E"/>
</svg>
