<svg width="26" height="26" viewBox="0 0 26 26" fill="none" xmlns="http://www.w3.org/2000/svg">
<path d="M13.0024 25.3935L16.4998 5.72361C19.8335 5.72361 20.8851 6.08917 21.0369 7.58128C21.0369 7.58128 23.2732 6.74743 24.4012 5.05391C19.9997 3.01435 15.5772 2.92237 15.5772 2.92237L12.9966 6.06551L13.0024 6.06511L10.4218 2.92188C10.4218 2.92188 5.99918 3.01396 1.59827 5.05352C2.72521 6.74704 4.96244 7.58088 4.96244 7.58088C5.11515 6.08868 6.16539 5.72312 9.47672 5.72075L13.0024 25.3935Z" fill="#E82127"/>
<path d="M13 2.01429C16.558 1.98708 20.6305 2.5647 24.7995 4.38175C25.3568 3.37883 25.5 2.93558 25.5 2.93558C20.9426 1.13253 16.6747 0.515478 12.9995 0.5C9.32449 0.515478 5.05677 1.13263 0.5 2.93558C0.5 2.93558 0.703286 3.48156 1.19997 4.38175C5.36821 2.5647 9.44142 1.98708 12.9995 2.01429H13Z" fill="#E82127"/>
</svg>
