<svg width="44" height="44" viewBox="0 0 44 44" fill="none" xmlns="http://www.w3.org/2000/svg">
<g filter="url(#filter0_b_1206_5437)">
<rect width="44" height="44" rx="10" fill="white" fill-opacity="0.3"/>
<rect x="0.5" y="0.5" width="43" height="43" rx="9.5" stroke="white"/>
</g>
<path d="M13 19C13 17.8954 13.8954 17 15 17H15.9296C16.5983 17 17.2228 16.6658 17.5937 16.1094L18.4063 14.8906C18.7772 14.3342 19.4017 14 20.0704 14H23.9296C24.5983 14 25.2228 14.3342 25.5937 14.8906L26.4063 16.1094C26.7772 16.6658 27.4017 17 28.0704 17H29C30.1046 17 31 17.8954 31 19V28C31 29.1046 30.1046 30 29 30H15C13.8954 30 13 29.1046 13 28V19Z" stroke="white" stroke-width="2" stroke-linecap="round" stroke-linejoin="round"/>
<path d="M25 23C25 24.6569 23.6569 26 22 26C20.3431 26 19 24.6569 19 23C19 21.3431 20.3431 20 22 20C23.6569 20 25 21.3431 25 23Z" stroke="white" stroke-width="2" stroke-linecap="round" stroke-linejoin="round"/>
<defs>
<filter id="filter0_b_1206_5437" x="-7" y="-7" width="58" height="58" filterUnits="userSpaceOnUse" color-interpolation-filters="sRGB">
<feFlood flood-opacity="0" result="BackgroundImageFix"/>
<feGaussianBlur in="BackgroundImage" stdDeviation="3.5"/>
<feComposite in2="SourceAlpha" operator="in" result="effect1_backgroundBlur_1206_5437"/>
<feBlend mode="normal" in="SourceGraphic" in2="effect1_backgroundBlur_1206_5437" result="shape"/>
</filter>
</defs>
</svg>
