<svg width="24" height="19" viewBox="0 0 24 19" fill="none" xmlns="http://www.w3.org/2000/svg">
<path d="M23.7165 2.45945C22.8715 2.8342 21.9634 3.08748 21.0102 3.2014C21.9831 2.61822 22.7302 1.69483 23.082 0.594594C22.1716 1.1345 21.1632 1.52665 20.0899 1.73801C19.2304 0.822252 18.0058 0.25 16.6506 0.25C14.0484 0.25 11.9386 2.35965 11.9386 4.96175C11.9386 5.33104 11.9804 5.69067 12.0607 6.03552C8.14466 5.83903 4.67276 3.96317 2.34881 1.11249C1.94323 1.8084 1.71086 2.6178 1.71086 3.48131C1.71086 5.11599 2.54278 6.55821 3.80708 7.40315C3.03464 7.3787 2.30815 7.16675 1.67281 6.81384C1.67247 6.8335 1.67247 6.85324 1.67247 6.87306C1.67247 9.15602 3.29665 11.0604 5.45217 11.4932C5.05676 11.6009 4.6405 11.6585 4.21073 11.6585C3.90713 11.6585 3.61193 11.629 3.32429 11.574C3.92384 13.446 5.66395 14.8082 7.72581 14.8463C6.11322 16.11 4.08152 16.8633 1.87401 16.8633C1.49371 16.8633 1.11862 16.841 0.75 16.7975C2.83521 18.1344 5.31197 18.9144 7.97287 18.9144C16.6396 18.9144 21.3789 11.7346 21.3789 5.50813C21.3789 5.30383 21.3744 5.10061 21.3653 4.89858C22.2859 4.23426 23.0848 3.40436 23.7165 2.45945Z" fill="#07B4FF"/>
</svg>
