<svg width="18" height="18" viewBox="0 0 18 18" fill="none" xmlns="http://www.w3.org/2000/svg">
<path d="M8.99984 17.3327C4.39746 17.3327 0.666504 13.6017 0.666504 8.99935C0.666504 4.39698 4.39746 0.666016 8.99984 0.666016C13.6022 0.666016 17.3332 4.39698 17.3332 8.99935C17.3281 13.5996 13.6001 17.3276 8.99984 17.3327ZM2.33317 9.14268C2.3726 12.8104 5.36743 15.7573 9.03529 15.7377C12.7031 15.7179 15.6661 12.7389 15.6661 9.07101C15.6661 5.4031 12.7031 2.42416 9.03529 2.40435C5.36743 2.38473 2.3726 5.33165 2.33317 8.99935V9.14268ZM7.33317 12.7493V5.24935L12.3332 8.99935L7.33317 12.7493Z" fill="#1A202C"/>
</svg>
